<svg width="48" height="48" viewBox="0 0 48 48" fill="none" xmlns="http://www.w3.org/2000/svg">
<path d="M3.2 48H41.6C43.3673 48 44.8 46.5673 44.8 44.8V42.4C44.8 41.958 44.442 41.6 44 41.6H42.4V28.8H40.8V41.6H39.2V28.8H37.6V41.6H27.3888C26.537 41.597 25.7575 42.0788 25.3795 42.8425C25.2705 43.0628 25.0455 43.202 24.8 43.2H20.1888C19.9435 43.2015 19.7188 43.0625 19.6105 42.8425C19.232 42.0788 18.4525 41.597 17.6 41.6H7.2V21.6C7.2 21.158 7.558 20.8 8 20.8H22.4V19.2H8C6.67475 19.2 5.6 20.2748 5.6 21.6V41.6H4V20C4 18.6748 5.07475 17.6 6.4 17.6H22.4V16H6.4C4.192 16.0028 2.40275 17.792 2.4 20V41.6H0.8C0.358 41.6 0 41.958 0 42.4V44.8C0 46.5673 1.43275 48 3.2 48ZM1.6 43.2H17.6C17.8453 43.1988 18.07 43.3373 18.1795 43.5565C18.557 44.3205 19.337 44.803 20.1888 44.8H24.8C25.6525 44.803 26.4325 44.3205 26.8105 43.5565C26.9188 43.337 27.1438 43.1985 27.3888 43.2H43.2V44.8C43.2 45.6838 42.4838 46.4 41.6 46.4H3.2C2.31625 46.4 1.6 45.6838 1.6 44.8V43.2Z" fill="#114A91"/>
<path d="M10.4 29.6V36C10.4 36.442 10.758 36.8 11.2 36.8H33.6C34.042 36.8 34.4 36.442 34.4 36V29.6C34.4 29.158 34.042 28.8 33.6 28.8H11.2C10.758 28.8 10.4 29.158 10.4 29.6ZM12 30.4H32.8V35.2H12V30.4Z" fill="#114A91"/>
<path d="M13.6 32H15.2V33.6H13.6V32Z" fill="#114A91"/>
<path d="M16.8 32H18.4V33.6H16.8V32Z" fill="#114A91"/>
<path d="M20 32H21.6V33.6H20V32Z" fill="#114A91"/>
<path d="M23.2 32H24.8V33.6H23.2V32Z" fill="#114A91"/>
<path d="M45.6 12.0298V9.6C45.6 4.298 41.302 0 36 0C30.698 0 26.4 4.298 26.4 9.6V12.0298C25.0388 12.1748 24.0048 13.3205 24 14.6895V24.5105C24.002 25.9953 25.2055 27.1988 26.6903 27.2H45.3098C46.7945 27.1988 47.998 25.9953 48 24.5105V14.6895C47.9953 13.3205 46.9613 12.1748 45.6 12.0298ZM28 9.6C28 5.1815 31.5815 1.6 36 1.6C40.4185 1.6 44 5.1815 44 9.6V12H42.4V9.6C42.4 6.06525 39.5348 3.2 36 3.2C32.4653 3.2 29.6 6.06525 29.6 9.6V12H28V9.6ZM31.2 12V9.6C31.2 6.9495 33.3495 4.8 36 4.8C38.6505 4.8 40.8 6.9495 40.8 9.6V12H31.2ZM46.4 24.5105C46.3995 25.1123 45.9113 25.5998 45.3098 25.6H26.6903C26.0888 25.5998 25.6005 25.1123 25.6 24.5105V14.6895C25.6005 14.0878 26.0888 13.6003 26.6903 13.6H45.3098C45.9113 13.6003 46.3995 14.0878 46.4 14.6895V24.5105Z" fill="#114A91"/>
<path d="M36 16.8C34.8325 16.7975 33.8338 17.6378 33.6355 18.7888C33.4378 19.9395 34.0988 21.065 35.2 21.4528V23.2H36.8V21.4528C37.9013 21.065 38.5623 19.9395 38.3645 18.7888C38.1663 17.6378 37.1675 16.7975 36 16.8ZM36 20C35.558 20 35.2 19.642 35.2 19.2C35.2 18.758 35.558 18.4 36 18.4C36.442 18.4 36.8 18.758 36.8 19.2C36.8 19.642 36.442 20 36 20Z" fill="#114A91"/>
<path d="M14.4 12.8H16V14.4H14.4V12.8Z" fill="#114A91"/>
<path d="M14.4 9.6H16V11.2H14.4V9.6Z" fill="#114A91"/>
<path d="M14.4 6.4H16V8H14.4V6.4Z" fill="#114A91"/>
<path d="M14.4 3.2H16V4.8H14.4V3.2Z" fill="#114A91"/>
<path d="M17.6 3.2H19.2V4.8H17.6V3.2Z" fill="#114A91"/>
<path d="M20.8 3.2H22.4V4.8H20.8V3.2Z" fill="#114A91"/>
<path d="M24 3.2H25.6V4.8H24V3.2Z" fill="#114A91"/>
</svg>
