<svg width="45" height="45" viewBox="0 0 45 45" fill="none" xmlns="http://www.w3.org/2000/svg">
<path d="M40.6055 3.86719H36.416V2.63672C36.416 1.18283 35.2332 0 33.7793 0C32.3254 0 31.1425 1.18283 31.1425 2.63672V3.86719H16.3769V2.63672C16.3769 1.18283 15.1941 0 13.7402 0C12.2863 0 11.1035 1.18283 11.1035 2.63672V3.89971C11.0288 3.87905 10.9505 3.86719 10.8692 3.86719H7.36726C4.94411 3.86719 2.97272 5.83857 2.97272 8.26172V23.2324C2.97272 23.7178 3.3663 24.1113 3.85163 24.1113C4.33696 24.1113 4.73054 23.7178 4.73054 23.2324V12.9199H36.416C36.9013 12.9199 37.2949 12.5264 37.2949 12.041C37.2949 11.5556 36.9013 11.1621 36.416 11.1621H4.73054V8.26172C4.73054 6.80783 5.91337 5.625 7.36726 5.625H10.8692C10.9505 5.625 11.0288 5.61305 11.1035 5.59248V6.72363C11.1035 8.17752 12.2863 9.36035 13.7402 9.36035C15.1941 9.36035 16.3769 8.17752 16.3769 6.72363V5.625H31.1425V6.72363C31.1425 8.17752 32.3254 9.36035 33.7793 9.36035C35.2332 9.36035 36.416 8.17752 36.416 6.72363V5.625H40.6055C42.0594 5.625 43.2422 6.80783 43.2422 8.26172V41.6596C43.2422 42.5322 42.5323 43.2422 41.6596 43.2422C40.787 43.2422 40.0771 42.5322 40.0771 41.6596V39.386C40.0771 38.9006 39.6835 38.5071 39.1982 38.5071H28.9746C28.4893 38.5071 28.0957 38.9006 28.0957 39.386C28.0957 39.8714 28.4893 40.2649 28.9746 40.2649H38.3193V41.6596C38.3193 42.2319 38.4641 42.7708 38.7187 43.2422H3.33984C2.46753 43.2422 1.75781 42.5325 1.75781 41.6602V40.2649H21.4299C21.9153 40.2649 22.3088 39.8714 22.3088 39.386C22.3088 38.9006 21.9153 38.5071 21.4299 38.5071H12.6483C14.1841 37.1844 15.1593 35.228 15.1593 33.0469C15.1593 29.0729 11.9262 25.8398 7.95226 25.8398C3.97828 25.8398 0.745225 29.0729 0.745225 33.0469C0.745225 35.228 1.72046 37.1844 3.25626 38.5071H0.878906C0.393574 38.5071 0 38.9006 0 39.386V41.6602C0 43.5017 1.49827 45 3.33984 45H41.6596C43.5015 45 45 43.5015 45 41.6596V8.26172C45 5.83857 43.0286 3.86719 40.6055 3.86719ZM14.6191 6.72363C14.6191 7.20826 14.2248 7.60254 13.7402 7.60254C13.2556 7.60254 12.8613 7.20826 12.8613 6.72363V2.63672C12.8613 2.15209 13.2556 1.75781 13.7402 1.75781C14.2248 1.75781 14.6191 2.15209 14.6191 2.63672V6.72363ZM34.6582 6.72363C34.6582 7.20826 34.2639 7.60254 33.7793 7.60254C33.2946 7.60254 32.9004 7.20826 32.9004 6.72363V2.63672C32.9004 2.15209 33.2946 1.75781 33.7793 1.75781C34.2639 1.75781 34.6582 2.15209 34.6582 2.63672V6.72363ZM2.50304 33.0469C2.50304 30.0422 4.94754 27.5977 7.95226 27.5977C10.957 27.5977 13.4015 30.0422 13.4015 33.0469C13.4015 36.0516 10.957 38.4961 7.95226 38.4961C4.94754 38.4961 2.50304 36.0516 2.50304 33.0469Z" fill="#114A91"/>
<path d="M41.16 11.4196C40.9966 11.2562 40.7698 11.1621 40.5387 11.1621C40.3074 11.1621 40.0808 11.2562 39.9173 11.4196C39.7538 11.5831 39.6598 11.8099 39.6598 12.041C39.6598 12.2722 39.7537 12.4989 39.9173 12.6624C40.0809 12.8259 40.3074 12.9199 40.5387 12.9199C40.7698 12.9199 40.9966 12.8259 41.16 12.6624C41.3234 12.4989 41.4176 12.2722 41.4176 12.041C41.4176 11.8099 41.3235 11.5831 41.16 11.4196Z" fill="#114A91"/>
<path d="M26.2484 38.7642C26.0851 38.6007 25.8583 38.5075 25.6271 38.5075C25.396 38.5075 25.1692 38.6007 25.0058 38.7642C24.8423 38.9285 24.7482 39.1544 24.7482 39.3855C24.7482 39.6176 24.8422 39.8435 25.0058 40.0078C25.1692 40.1713 25.396 40.2645 25.6271 40.2645C25.8583 40.2645 26.0851 40.1713 26.2484 40.0078C26.4119 39.8435 26.5061 39.6167 26.5061 39.3855C26.5061 39.1544 26.412 38.9285 26.2484 38.7642Z" fill="#114A91"/>
<path d="M19.8848 26.7188C18.0432 26.7188 16.545 28.217 16.545 30.0586C16.545 31.9002 18.0432 33.3984 19.8848 33.3984C21.7264 33.3984 23.2247 31.9002 23.2247 30.0586C23.2247 28.217 21.7264 26.7188 19.8848 26.7188ZM19.8848 31.6406C19.0125 31.6406 18.3028 30.9309 18.3028 30.0586C18.3028 29.1863 19.0125 28.4766 19.8848 28.4766C20.7571 28.4766 21.4668 29.1863 21.4668 30.0586C21.4668 30.9309 20.7571 31.6406 19.8848 31.6406Z" fill="#114A91"/>
<path d="M28.0879 26.7188C26.2463 26.7188 24.7481 28.217 24.7481 30.0586C24.7481 31.9002 26.2463 33.3984 28.0879 33.3984C29.9295 33.3984 31.4278 31.9002 31.4278 30.0586C31.4278 28.217 29.9295 26.7188 28.0879 26.7188ZM28.0879 31.6406C27.2156 31.6406 26.5059 30.9309 26.5059 30.0586C26.5059 29.1863 27.2156 28.4766 28.0879 28.4766C28.9602 28.4766 29.6699 29.1863 29.6699 30.0586C29.6699 30.9309 28.9602 31.6406 28.0879 31.6406Z" fill="#114A91"/>
<path d="M36.2911 26.7188C34.4495 26.7188 32.9512 28.217 32.9512 30.0586C32.9512 31.9002 34.4495 33.3984 36.2911 33.3984C38.1327 33.3984 39.6309 31.9002 39.6309 30.0586C39.6309 28.217 38.1327 26.7188 36.2911 26.7188ZM36.2911 31.6406C35.4188 31.6406 34.7091 30.9309 34.7091 30.0586C34.7091 29.1863 35.4188 28.4766 36.2911 28.4766C37.1634 28.4766 37.8731 29.1863 37.8731 30.0586C37.8731 30.9309 37.1634 31.6406 36.2911 31.6406Z" fill="#114A91"/>
<path d="M11.6817 17.5781C9.84015 17.5781 8.34188 19.0764 8.34188 20.918C8.34188 22.7595 9.84015 24.2578 11.6817 24.2578C13.5233 24.2578 15.0216 22.7595 15.0216 20.918C15.0216 19.0764 13.5233 17.5781 11.6817 17.5781ZM11.6817 22.5C10.8094 22.5 10.0997 21.7903 10.0997 20.918C10.0997 20.0457 10.8094 19.3359 11.6817 19.3359C12.554 19.3359 13.2638 20.0457 13.2638 20.918C13.2638 21.7903 12.554 22.5 11.6817 22.5Z" fill="#114A91"/>
<path d="M28.0879 17.5781C26.2463 17.5781 24.7481 19.0764 24.7481 20.918C24.7481 22.7595 26.2463 24.2578 28.0879 24.2578C29.9295 24.2578 31.4278 22.7595 31.4278 20.918C31.4278 19.0764 29.9295 17.5781 28.0879 17.5781ZM28.0879 22.5C27.2156 22.5 26.5059 21.7903 26.5059 20.918C26.5059 20.0457 27.2156 19.3359 28.0879 19.3359C28.9602 19.3359 29.6699 20.0457 29.6699 20.918C29.6699 21.7903 28.9602 22.5 28.0879 22.5Z" fill="#114A91"/>
<path d="M36.2911 17.5781C34.4495 17.5781 32.9512 19.0764 32.9512 20.918C32.9512 22.7595 34.4495 24.2578 36.2911 24.2578C38.1327 24.2578 39.6309 22.7595 39.6309 20.918C39.6309 19.0764 38.1327 17.5781 36.2911 17.5781ZM36.2911 22.5C35.4188 22.5 34.7091 21.7903 34.7091 20.918C34.7091 20.0457 35.4188 19.3359 36.2911 19.3359C37.1634 19.3359 37.8731 20.0457 37.8731 20.918C37.8731 21.7903 37.1634 22.5 36.2911 22.5Z" fill="#114A91"/>
<path d="M19.8848 17.5781C18.0432 17.5781 16.545 19.0764 16.545 20.918C16.545 22.7595 18.0432 24.2578 19.8848 24.2578C21.7264 24.2578 23.2247 22.7595 23.2247 20.918C23.2247 19.0764 21.7264 17.5781 19.8848 17.5781ZM19.8848 22.5C19.0125 22.5 18.3028 21.7903 18.3028 20.918C18.3028 20.0457 19.0125 19.3359 19.8848 19.3359C20.7571 19.3359 21.4668 20.0457 21.4668 20.918C21.4668 21.7903 20.7571 22.5 19.8848 22.5Z" fill="#114A91"/>
<path d="M11.0834 30.9049C10.7401 30.5617 10.1837 30.5617 9.84032 30.9049L6.97808 33.7672L5.99994 32.7891C5.65664 32.4459 5.10029 32.4459 4.7569 32.7891C4.41369 33.1323 4.41369 33.6888 4.7569 34.0321L6.3566 35.6316C6.52148 35.7964 6.74499 35.8891 6.97808 35.8891C7.21116 35.8891 7.43467 35.7964 7.59955 35.6316L11.0834 32.1478C11.4266 31.8046 11.4266 31.2481 11.0834 30.9049Z" fill="#114A91"/>
</svg>
