<svg width="207" height="32" viewBox="0 0 207 32" fill="none" xmlns="http://www.w3.org/2000/svg">
<path d="M207 14.4333L206.594 8.68327H202.921V3.65674H196.123V23.839C196.123 30.2745 198.795 31.5121 204.318 31.5121H206.991V25.5717H205.083C203.403 25.5717 202.912 24.791 202.912 22.9727V14.4333H207Z" fill="#114A91"/>
<path d="M193.167 8.68213C192.261 8.68213 193.252 8.68213 190.948 8.68213C188.361 8.68213 186.284 10.0054 185.604 10.8717L185.198 8.68213H178.985V31.511H185.784V20.5916C185.784 17.5357 186.992 14.4322 191.911 14.4322C193.224 14.4322 192.487 14.4322 193.564 14.4322L193.167 8.68213Z" fill="#114A91"/>
<path d="M165.483 8.21582C161.196 8.21582 158.656 8.98694 156.9 11.167L160.885 15.1844C161.555 14.5276 162.065 14.2134 162.839 13.9944C163.34 13.8516 163.944 13.7945 164.718 13.7945C167.891 13.7945 168.297 14.6608 168.297 16.898V17.5835H164.265C159.553 17.5835 155.927 19.9158 155.927 24.7044C155.927 29.4929 159.374 31.9681 163.812 31.9681C166.304 31.9681 167.522 30.8733 168.297 29.6357L168.703 31.5112H174.906V16.9456C174.906 9.91037 171.375 8.21582 165.483 8.21582ZM168.297 23.105C168.297 25.2089 167.57 26.5798 165.304 26.5798C163.585 26.5798 162.537 25.8468 162.537 24.5235C162.537 23.0194 163.491 22.4196 165.209 22.4196H168.287V23.105H168.297Z" fill="#114A91"/>
<path d="M144.965 8.21582C142.066 8.21582 139.98 9.53909 138.582 11.0908C137.175 9.16782 134.957 8.21582 132.379 8.21582C130.028 8.21582 128.394 9.40582 127.62 10.4054L127.214 8.67278H118.168C118.036 10.1865 118.197 11.1099 118.489 12.2237C119.358 15.5747 121.511 18.7544 122.559 21.3153C124.608 26.3609 122.257 29.2264 119.538 31.5016H127.799V18.4498C127.799 15.1654 129.017 14.0611 130.698 14.0611C132.417 14.0611 133.502 15.1083 133.502 18.4879V31.5112H140.301V18.0404C140.301 15.0702 141.481 14.0706 143.105 14.0706C145.23 14.0706 146.004 15.4415 146.004 18.4974V31.5112H152.802V17.1741C152.802 11.2336 149.951 8.21582 144.965 8.21582Z" fill="#114A91"/>
<path d="M115.421 21.7153C114.561 18.3166 112.428 15.4321 111.153 11.8812C109.463 7.15925 110.851 3.49407 114.93 0.00976562H106.791V31.5208H114.486C114.949 30.3308 115.317 29.3122 115.591 28.3602C116.129 26.0088 116.242 24.9616 115.421 21.7153Z" fill="#114A91"/>
<path d="M98.5665 25.0185C98.1322 25.2756 97.6034 25.6469 96.9519 25.8658C96.2532 26.0943 95.2901 26.2181 94.4214 26.2181C91.6549 26.2181 91.0222 24.4378 90.9278 21.8294H103.155V19.1352C103.155 12.0143 100.209 8.21582 93.6472 8.21582C87.7553 8.21582 84.1389 11.3669 84.1389 18.4498V21.6485C84.1389 27.3129 87.2171 31.9681 94.3742 31.9681C96.7159 31.9681 98.8687 31.5968 100.351 30.7686C101.182 30.3116 101.881 29.7024 102.466 28.9312L98.5665 25.0185ZM93.6849 13.9754C95.2712 13.9754 96.2249 14.756 96.3571 17.2598H90.9656C91.1544 15.2035 91.9193 13.9754 93.6849 13.9754Z" fill="#114A91"/>
<path d="M83.8934 8.68213L75.5088 31.511H69.1731L60.6091 8.68213H68.0872L72.2512 21.8387L76.4152 8.68213H83.8934Z" fill="#114A91"/>
<path d="M49.9961 8.21582C45.7094 8.21582 43.1694 8.98694 41.4132 11.167L45.3978 15.1844C46.0682 14.5276 46.5781 14.2134 47.3523 13.9944C47.8527 13.8516 48.457 13.7945 49.2313 13.7945C52.4038 13.7945 52.8099 14.6608 52.8099 16.898V17.5835H48.7781C44.0664 17.5835 40.4407 19.9158 40.4407 24.7044C40.4407 29.4929 43.887 31.9681 48.3248 31.9681C50.8176 31.9681 52.0356 30.8733 52.8099 29.6357L53.2159 31.5112H59.4193V16.9456C59.4193 9.91037 55.888 8.21582 49.9961 8.21582ZM52.8099 23.105C52.8099 25.2089 52.0828 26.5798 49.8167 26.5798C48.0982 26.5798 47.0502 25.8468 47.0502 24.5235C47.0502 23.0194 48.0038 22.4196 49.7223 22.4196H52.8004V23.105H52.8099Z" fill="#114A91"/>
<path d="M39.2415 8.68213C38.3351 8.68213 39.3265 8.68213 37.0226 8.68213C34.4355 8.68213 32.3582 10.0054 31.6784 10.8717L31.2724 8.68213H25.0594V31.511H31.8578V20.5916C31.8578 17.5357 33.0664 14.4322 37.9857 14.4322C39.2982 14.4322 38.5617 14.4322 39.6381 14.4322L39.2415 8.68213Z" fill="#114A91"/>
<path d="M23.5676 0H0V6.30221H8.14856V31.5111H15.6739V6.30221H24.0019L23.5676 0Z" fill="#114A91"/>
<path d="M122.55 21.3246C121.501 18.7638 119.358 15.5841 118.48 12.2331C118.187 11.1192 118.027 10.1958 118.159 8.68213C117.885 10.9288 118.404 13.1375 119.311 15.765C120.595 19.4968 121.671 22.7241 121.058 26.532C120.671 28.9025 119.925 30.3972 119.528 31.5205C122.247 29.2357 124.599 26.3702 122.55 21.3246Z" fill="#8AC44B"/>
<path d="M115.449 20.2682C114.552 16.7363 113.145 12.1096 112.994 8.75861C112.871 6.00734 113.173 3.90343 114.93 0.00976562C110.86 3.48455 109.463 7.15925 111.153 11.8812C112.428 15.4321 114.561 18.3166 115.421 21.7153C116.242 24.9711 116.129 26.0183 115.591 28.3507C116.318 25.8184 116.337 23.7716 115.449 20.2682Z" fill="#8AC44B"/>
</svg>
