<svg width="54" height="54" viewBox="0 0 54 54" fill="none" xmlns="http://www.w3.org/2000/svg">
<path stroke="#114A91" d="M40.8864 48.9394C40.5942 48.4359 39.9491 48.2644 39.4449 48.5565L39.4043 48.5799C38.9006 48.8722 38.7292 49.5176 39.0214 50.0214C39.217 50.3586 39.5709 50.5469 39.9345 50.5469C40.114 50.5469 40.2963 50.5009 40.4628 50.4042L40.5034 50.3808C41.0071 50.0886 41.1785 49.4432 40.8864 48.9394Z" fill="none"/>
<path stroke="#114A91" d="M50.3817 13.5084C46.7766 7.26409 40.9557 2.79758 33.9912 0.931405C27.0268 -0.934766 19.7525 0.022999 13.5082 3.62804C7.26401 7.23308 2.79741 13.0541 0.931354 20.0186C-0.934704 26.983 0.0229518 34.2575 3.62798 40.5017C6.86175 46.1029 12.0015 50.3597 18.1003 52.4879C20.9913 53.4966 24.0093 54 27.0226 54C30.299 54 33.5695 53.4045 36.6609 52.2164C37.2046 52.0075 37.4758 51.3973 37.2668 50.8536C37.0578 50.31 36.4475 50.0384 35.904 50.2477C27.6754 53.4104 18.7673 51.9734 12.1119 46.9778L13.0568 42.0455L13.5121 41.8976C15.2326 41.3386 16.1776 39.4841 15.6188 37.7634L15.2847 36.7352C15.2074 36.4973 15.2078 36.2457 15.2858 36.008C15.5789 35.1145 15.4741 34.1369 14.9984 33.3256C14.5226 32.5145 13.7205 31.9457 12.7975 31.7652L10.4171 31.3001L5.82415 27.808C5.54899 27.5988 5.18881 27.5377 4.85996 27.6444L2.17093 28.5179C2.11387 27.5561 2.11303 26.5947 2.16724 25.6383C2.27334 25.7371 2.34242 25.8043 2.38492 25.8484C2.43755 25.936 2.50273 26.0164 2.57909 26.086C2.79868 26.286 2.99759 26.3767 3.41525 26.3767C3.79905 26.3766 4.36721 26.3001 5.30535 26.1615C6.19509 26.03 7.08018 25.8818 7.08893 25.8803C7.44363 25.821 7.74347 25.5847 7.88459 25.2541C8.02571 24.9233 7.98848 24.5435 7.78587 24.2463L6.49272 22.3496L8.34496 21.0251C8.46836 20.9368 8.5713 20.823 8.64671 20.6914L11.5179 15.6789L12.6752 14.4388C13.8578 13.1713 14.1953 11.3168 13.5349 9.71414C13.1453 8.76882 12.4648 7.98181 11.6136 7.4514C12.5354 6.72672 13.5183 6.05763 14.5629 5.45466C18.3954 3.24192 22.5779 2.16961 26.7163 2.12859L24.8331 4.49099L17.8495 6.93924C17.5659 7.0386 17.3381 7.25439 17.2235 7.53219L15.2732 12.2602C15.1347 12.5961 15.1787 12.9794 15.3897 13.2751L18.2382 17.2652C17.8303 17.6374 17.4332 18.1795 16.9589 18.8526C16.7509 19.1478 16.5545 19.4266 16.4188 19.5829C16.3008 19.7189 16.1827 19.8518 16.0656 19.9835C15.4529 20.6727 14.8195 21.3856 14.3694 22.3377C13.3799 24.4323 13.5798 26.8667 14.891 28.6911C16.1588 30.4551 18.249 31.3518 20.4799 31.0894C20.8433 31.0468 21.1822 30.9629 21.5101 30.8817C22.4143 30.658 22.7007 30.6356 22.9908 30.9071C23.1319 31.0393 23.1449 31.0643 23.142 31.5124C23.14 31.7976 23.1378 32.1524 23.2361 32.5575C23.3936 33.2056 23.8006 33.6535 24.1275 34.0134C24.29 34.1922 24.4582 34.3771 24.5099 34.5013C24.8389 35.2896 24.6957 35.7261 24.3818 36.6827C24.3549 36.7645 24.3275 36.8481 24.3 36.9337C23.8231 38.4098 24.4878 39.8739 25.0742 41.1655C25.2647 41.5849 25.4445 41.9808 25.5623 42.3308C26.5106 45.1446 27.2214 45.789 27.7919 46.0485C28.0907 46.1843 28.3999 46.2439 28.7123 46.2438C30.2327 46.2437 31.8191 44.8321 32.5479 43.9372C33.0057 43.3752 33.1184 42.8126 33.2007 42.4016C33.2417 42.1972 33.274 42.0358 33.3356 41.9303C33.4299 41.769 33.5409 41.6439 33.6815 41.4855C33.9643 41.167 34.3162 40.7709 34.5441 40.0528C34.7173 39.5073 34.8431 39.3735 35.2598 38.9297C35.3324 38.8526 35.4097 38.7702 35.4927 38.6799C36.8975 37.1513 36.5357 35.9837 36.1525 34.7473C35.8301 33.7071 36.3941 33.0418 37.7576 31.7721C38.3486 31.2216 38.9597 30.6525 39.4321 29.9686C39.6388 29.6693 40.2677 28.7588 39.8785 27.8563C39.4971 26.9714 38.5275 26.8227 37.7485 26.7033C37.4408 26.6561 36.9759 26.5848 36.828 26.4881C36.1754 26.0614 35.7762 25.1711 35.3901 24.3099C35.3132 24.1385 35.2374 23.9693 35.1605 23.8051C35.0234 23.5121 34.8864 23.1577 34.7414 22.7824C34.3577 21.7893 33.9228 20.6636 33.1825 19.8789C32.5171 19.1739 31.2628 18.8343 30.1561 18.5345C29.7839 18.4338 29.4326 18.3387 29.2009 18.2531C29.0067 18.1814 28.796 18.1684 28.595 18.2157C28.0563 18.3419 27.7203 18.481 27.4708 18.681C27.4048 18.7339 27.2096 18.9074 27.0953 19.1862C26.7092 19.0009 26.1782 18.6471 25.8515 18.4293C25.8448 18.4247 25.8379 18.4202 25.8311 18.4157C25.9413 17.975 25.8416 17.6214 25.7372 17.4005C25.148 16.1543 23.1923 16.2519 22.8065 16.2847C22.5874 16.303 22.3101 16.3128 22.0168 16.3232C21.5561 16.3395 21.0469 16.3579 20.5431 16.4144L20.569 16.342C20.9514 15.2765 21.969 14.5606 23.1011 14.5606H23.7007C24.283 14.5606 24.7553 14.0883 24.7553 13.506C24.7553 12.9237 24.283 12.4514 23.7007 12.4514H23.1011C21.4203 12.4514 19.8812 13.3359 19.0186 14.7282L17.4455 12.5247L18.9932 8.77325L25.8173 6.38078C26.0044 6.31518 26.1694 6.19811 26.2931 6.04297L29.3267 2.23775C37.078 2.97508 44.3743 7.32104 48.5553 14.5628C49.669 16.4917 50.4928 18.5224 51.0405 20.5994L50.5934 20.9981C50.0099 21.5188 49.6679 22.2656 49.6548 23.0472C49.6547 23.0558 49.6545 23.0642 49.6542 23.0727L48.9259 21.0696C48.8173 20.7707 48.6574 20.4966 48.4509 20.2549L47.1517 18.7338C46.6479 18.1441 45.9145 17.806 45.1392 17.806H43.5488C42.9843 17.806 42.4683 18.1153 42.202 18.6128C41.9357 19.1104 41.9648 19.7113 42.2779 20.1809L42.4389 20.4225C41.4112 21.3063 40.2226 22.0134 38.9569 22.4904L36.7769 18.3145V17.3829C36.7769 17.0948 36.659 16.819 36.4505 16.6202L34.4874 14.7461C34.3791 14.6427 34.25 14.5636 34.1088 14.5139L32.3416 13.8929C31.7918 13.6995 31.19 13.9888 30.997 14.5382C30.8039 15.0878 31.0928 15.6897 31.6423 15.8828L33.1952 16.4286L34.6677 17.8342V18.5733C34.6677 18.7432 34.7089 18.9107 34.7876 19.0614L37.5168 24.2892C37.7622 24.7596 38.3193 24.9746 38.8165 24.7906L39.6112 24.4976C41.4574 23.8167 43.1686 22.7214 44.56 21.3303C44.9154 20.9748 44.9707 20.418 44.6917 19.9996L44.6356 19.9153H45.1392C45.2967 19.9153 45.4457 19.984 45.548 20.1038L46.8473 21.625C46.8891 21.674 46.9215 21.7295 46.9437 21.7904L48.3775 25.7331C48.5007 26.0719 48.7884 26.3242 49.1401 26.4022C49.216 26.419 49.2925 26.4272 49.3685 26.4272C49.6451 26.4272 49.9144 26.3183 50.1142 26.1183L50.7967 25.4358C51.2289 25.0035 51.5264 24.4565 51.6686 23.8502C52.7241 32.3093 49.4072 41.0599 42.3963 46.5626C41.938 46.9222 41.8581 47.5851 42.2178 48.0433C42.5774 48.5016 43.2401 48.5815 43.6985 48.2218C48.7602 44.2491 52.2375 38.5669 53.4899 32.222C54.7541 25.8159 53.6503 19.1698 50.3817 13.5084ZM4.98673 29.821L9.33552 33.1275C9.46409 33.2253 9.61322 33.2922 9.77164 33.3231L12.3927 33.8352C12.7273 33.9006 13.0064 34.0985 13.1788 34.3925C13.3512 34.6865 13.3875 35.0266 13.2814 35.3505C13.0631 36.0163 13.0621 36.7206 13.2786 37.3868L13.6127 38.4149C13.8124 39.0294 13.4746 39.6918 12.8603 39.8915L11.8122 40.2321C11.4466 40.3508 11.1747 40.6592 11.1024 41.0366L10.2589 45.4398C8.40445 43.7425 6.77622 41.7365 5.45459 39.4473C3.84219 36.6548 2.83475 33.6762 2.39072 30.6644L4.98673 29.821ZM11.1331 12.9998L9.8925 14.329C9.83713 14.3884 9.78872 14.454 9.74833 14.5245L6.93105 19.4431L4.42712 21.2336C3.96073 21.5671 3.84619 22.2118 4.16914 22.6856L5.1056 24.0592C4.56581 24.1396 4.08139 24.2058 3.75929 24.2409C3.69738 24.1816 3.63262 24.1213 3.56565 24.0591C3.31495 23.8262 2.96658 23.5152 2.44726 23.0607C3.30377 17.7595 5.85822 12.7654 9.87574 8.95318C10.645 9.19544 11.2764 9.7693 11.5848 10.5178C11.9317 11.3597 11.7543 12.334 11.1331 12.9998ZM19.732 18.763C20.2024 18.4982 21.2942 18.4595 22.0913 18.4313C22.4108 18.42 22.7127 18.4092 22.9822 18.3867C23.1245 18.3747 23.2825 18.377 23.4315 18.3886C23.365 18.5594 23.3434 18.7469 23.3723 18.933C23.423 19.2603 23.6247 19.5445 23.9167 19.7007C24.1145 19.8066 24.3899 19.9902 24.6814 20.1846C25.5057 20.7341 26.44 21.3569 27.3177 21.4128C28.1159 21.4646 28.56 21.0097 28.7503 20.8159C28.7655 20.8005 28.7798 20.7851 28.795 20.7711C28.9022 20.6838 29.0026 20.5667 29.0773 20.4255C29.2459 20.4737 29.4231 20.5217 29.6047 20.5709C30.2292 20.74 31.3916 21.0547 31.6484 21.3268C32.1045 21.8104 32.4601 22.7308 32.7738 23.5428C32.9324 23.9532 33.0821 24.3405 33.2501 24.6996C33.3223 24.8537 33.3933 25.0124 33.4654 25.1732C33.952 26.2587 34.5036 27.4891 35.6738 28.2539C36.2044 28.6008 36.8548 28.7005 37.4288 28.7885C37.4982 28.7992 37.5777 28.8114 37.6585 28.8247C37.3179 29.3 36.8328 29.7516 36.3203 30.2288C35.0147 31.4447 33.3899 32.958 34.1382 35.372C34.4914 36.5119 34.5079 36.6351 33.9399 37.253C33.8625 37.3372 33.7903 37.414 33.7227 37.486C33.2363 38.0038 32.8521 38.4128 32.534 39.4148C32.4416 39.7058 32.3219 39.8406 32.1045 40.0852C31.9307 40.281 31.7142 40.5248 31.5145 40.8666C31.2753 41.276 31.1962 41.6702 31.1329 41.987C31.0703 42.2986 31.0349 42.455 30.9125 42.6052C30.634 42.9471 30.1144 43.4437 29.5811 43.7826C29.0854 44.0973 28.796 44.1403 28.6974 44.1344C28.5848 44.0138 28.1772 43.4855 27.5613 41.6574C27.4094 41.2064 27.1987 40.7423 26.9949 40.2935C26.5457 39.3042 26.0813 38.2812 26.3072 37.582C26.3339 37.4996 26.3603 37.419 26.3862 37.3402C26.7471 36.2402 27.0878 35.2014 26.4567 33.689C26.2645 33.2284 25.9586 32.8918 25.6889 32.5948C25.5143 32.4028 25.3166 32.1851 25.2861 32.0598C25.249 31.907 25.2501 31.7305 25.2515 31.5262C25.2551 30.9751 25.2606 30.1425 24.4327 29.3673C23.2656 28.2748 21.9047 28.6114 21.004 28.8341C20.7273 28.9025 20.466 28.9672 20.2343 28.9944C18.7527 29.168 17.4299 28.609 16.6041 27.4598C15.7402 26.2578 15.6148 24.6402 16.2769 23.2386C16.5975 22.5603 17.0817 22.0153 17.6423 21.3846C17.7648 21.2468 17.8884 21.1078 18.012 20.9654C18.2177 20.7283 18.444 20.4072 18.6833 20.0673C18.969 19.6618 19.501 18.9066 19.732 18.763Z" fill="none"/>
<path stroke="#114A91" d="M43.2445 36.3106L42.737 34.398C42.6262 33.9804 42.2718 33.6726 41.8429 33.6214C41.4134 33.5712 40.9969 33.7859 40.7907 34.1657C40.6751 34.3787 40.571 34.6044 40.4704 34.8227C40.3011 35.1898 40.1261 35.5695 39.9439 35.779C39.8416 35.8967 39.5788 36.0236 39.3248 36.1462C38.7176 36.4392 37.886 36.8405 37.5683 37.8532C37.3711 38.4814 37.4447 38.9783 37.4985 39.3412C37.545 39.6558 37.5558 39.7648 37.4715 39.9627L37.461 39.9873C37.1253 40.775 36.5007 42.2416 37.3765 43.4883C38.0014 44.3781 38.6585 44.6068 39.169 44.6068C39.2687 44.6071 39.363 44.5984 39.4502 44.5841C40.526 44.4083 41.3347 43.2893 41.9956 41.0622L43.2361 36.8813C43.2913 36.6954 43.2942 36.4979 43.2445 36.3106ZM39.9737 40.4622C39.6368 41.5977 39.3387 42.1278 39.1667 42.3627C39.1469 42.3374 39.1254 42.3087 39.1024 42.2759C38.9008 41.9889 39.2021 41.2818 39.4014 40.8138L39.412 40.7891C39.7335 40.0346 39.6476 39.4552 39.585 39.032C39.5448 38.7611 39.5305 38.6446 39.5808 38.4846C39.6221 38.3531 39.8692 38.2255 40.2416 38.0458C40.4066 37.9661 40.5883 37.8784 40.7717 37.7723L39.9737 40.4622Z" fill="none"/>
<path stroke="#114A91" d="M28.4797 12.536L28.4085 12.5111C27.8593 12.3187 27.2571 12.6076 27.0643 13.1572C26.8715 13.7069 27.1608 14.3086 27.7104 14.5014L27.7815 14.5263C27.897 14.5668 28.0147 14.586 28.1306 14.586C28.566 14.586 28.9735 14.3142 29.1258 13.8802C29.3186 13.3305 29.0293 12.7287 28.4797 12.536Z" fill="none"/>
</svg>
