<svg width="57" height="59" viewBox="0 0 57 59" fill="none" xmlns="http://www.w3.org/2000/svg">
<path stroke="#114A91" d="M18.3214 16.8701C11.5757 16.8701 6.10714 22.2752 6.10714 28.9425C6.10714 35.6099 11.5757 41.0149 18.3214 41.0149C25.0671 41.0149 30.5357 35.6099 30.5357 28.9425C30.5357 22.2752 25.0671 16.8701 18.3214 16.8701ZM27.3609 24.4154H22.9589C22.5379 22.3304 21.8803 20.6452 21.2089 19.345C23.8989 20.1384 26.107 21.9819 27.3609 24.4154ZM21.375 28.9425C21.375 29.8407 21.3069 30.6657 21.2134 31.4576H15.4298C15.3359 30.6657 15.2677 29.8405 15.2677 28.9425C15.2677 28.044 15.3348 27.2191 15.4278 26.4275H21.2154C21.3079 27.2191 21.375 28.0441 21.375 28.9425ZM18.0252 18.9116C18.1256 18.9087 18.22 18.8822 18.3214 18.8822C18.4238 18.8822 18.5186 18.9092 18.6205 18.9121C19.3844 20.0705 20.3134 21.9028 20.8758 24.4154H15.7672C16.3324 21.8941 17.2647 20.0627 18.0252 18.9116ZM15.4339 19.345C14.7649 20.6424 14.1068 22.3295 13.6855 24.4154H9.28196C10.536 21.9819 12.7441 20.1389 15.4339 19.345ZM8.14285 28.9425C8.14285 28.069 8.29146 27.236 8.50419 26.4275H13.3763C13.2913 27.2242 13.2321 28.0529 13.2321 28.9425C13.2321 29.8326 13.2928 30.6603 13.3792 31.4576H8.50419C8.29146 30.649 8.14285 29.816 8.14285 28.9425ZM9.28196 33.4697H13.6904C14.1159 35.5593 14.7743 37.259 15.431 38.5392C12.7425 37.7453 10.5354 35.9023 9.28196 33.4697ZM18.6171 38.9734C18.5167 38.9764 18.4228 39.0028 18.3214 39.0028C18.22 39.0028 18.1261 38.9763 18.0252 38.9734C17.2957 37.8643 16.3454 36.0278 15.7699 33.4697H20.8732C20.2985 36.0261 19.3492 37.8618 18.6171 38.9734ZM21.2129 38.5392C21.8704 37.2578 22.5285 35.5595 22.9529 33.4697H27.3609C26.1074 35.902 23.9007 37.7449 21.2129 38.5392ZM23.2641 31.4576C23.3501 30.6603 23.4107 29.8326 23.4107 28.9425C23.4107 28.0529 23.352 27.2242 23.267 26.4275H28.1386C28.3514 27.236 28.5 28.0692 28.5 28.9425C28.5 29.816 28.3514 30.649 28.1386 31.4576H23.2641Z" fill="none"/>
<path stroke="#114A91" d="M28.5 47.0511H8.14285V49.0632H28.5V47.0511Z" fill="none"/>
<path stroke="#114A91" d="M42.672 32.5575L41.6179 36.4444L43.5842 36.9654L44.6383 33.0784L42.672 32.5575Z" fill="none"/>
<path stroke="#114A91" d="M40.5638 40.3278L36.876 53.9316L38.8423 54.4523L42.5301 40.8485L40.5638 40.3278Z" fill="none"/>
<path stroke="#114A91" d="M53.9811 6.3873L30.3852 0.138078C30.0322 0.0446427 29.6778 0 29.329 0C27.5313 0.000125754 25.8864 1.18586 25.3988 2.98364L23.2707 10.834H2.03571C0.91149 10.834 0 11.7347 0 12.846V53.0873C0 54.1986 0.91149 55.0994 2.03571 55.0994H25.5483L39.7555 58.8619C40.1085 58.9554 40.4627 59 40.8117 59C42.6094 59 44.2543 57.8141 44.7419 56.0164L56.8602 11.3157C57.4423 9.1691 56.1531 6.96249 53.9811 6.3873ZM2.03571 53.0873V12.846H32.5714C33.6941 12.846 34.6071 13.7487 34.6071 14.8581V51.0752C34.6071 52.1846 33.6941 53.0873 32.5714 53.0873H2.03571ZM54.8941 10.795L42.7758 55.4956C42.5372 56.3744 41.7297 56.9881 40.8116 56.9881C40.6347 56.9881 40.4567 56.9647 40.2823 56.9184L33.1836 55.0384C35.1392 54.7447 36.6427 53.0904 36.6427 51.0754V35.1242L37.6854 35.4004L38.7395 31.5133L36.7728 30.9926L36.6427 31.4735V15.484C37.2773 15.6521 38.0099 15.8461 38.7201 16.0343L41.1276 23.8137L42.8129 24.2601L42.6534 17.0759C43.7602 17.3691 44.8904 17.6683 45.6309 17.8645L46.9394 20.1453L48.0632 20.4428L47.8699 17.2672L49.6438 14.6124L48.5201 14.3148L46.2333 15.6434C45.4923 15.4474 44.3626 15.1481 43.2553 14.8548L47.028 8.71224L45.3427 8.26581L39.3224 13.8133C38.1386 13.4998 36.8469 13.1575 36.1471 12.9724C35.4613 11.7056 34.1259 10.8341 32.5713 10.8341H25.3777L27.3647 3.50464C27.6032 2.62599 28.4109 2.01232 29.3289 2.01219C29.5057 2.01219 29.6837 2.03558 29.8582 2.08186L53.4542 8.33108C53.9796 8.47016 54.4184 8.80316 54.6903 9.26857C54.9623 9.73386 55.0347 10.276 54.8941 10.795Z" fill="none"/>
<path stroke="#114A91" d="M42.1421 27.239L41.6214 29.1841L43.5559 29.69L44.0766 27.745L42.1421 27.239Z" fill="none"/>
<path stroke="#114A91" d="M46.0058 28.2537L45.4851 30.1986L47.4195 30.7046L47.9402 28.7596L46.0058 28.2537Z" fill="none"/>
<path stroke="#114A91" d="M38.2787 26.2277L37.758 28.1726L39.6924 28.6785L40.2131 26.7336L38.2787 26.2277Z" fill="none"/>
</svg>
