<svg width="47" height="50" viewBox="0 0 47 50" fill="none" xmlns="http://www.w3.org/2000/svg">
<mask id="path-1-outside-1" maskUnits="userSpaceOnUse" x="0" y="0" width="47" height="50" fill="black">
<rect  width="47" height="50"/>
<path d="M23.5 16.9975C22.8331 16.9975 22.2688 17.4032 22.0627 18.031L19.4774 25.9064C19.4653 25.9434 19.4307 25.9683 19.3914 25.9683H11.025C10.358 25.9683 9.79385 26.3739 9.58774 27.0017C9.38163 27.6296 9.59712 28.286 10.1367 28.674L16.9054 33.5413C16.9371 33.5641 16.9503 33.6043 16.9381 33.6412L14.3528 41.5165C14.1467 42.1443 14.3622 42.8008 14.9017 43.1888C15.4414 43.5769 16.1389 43.5768 16.6783 43.1888L23.4468 38.3216C23.4788 38.2986 23.5214 38.2987 23.5532 38.3215L30.3218 43.1888C30.5916 43.3828 30.9008 43.4798 31.2101 43.4798C31.5193 43.4798 31.8285 43.3828 32.0984 43.1888C32.6379 42.8008 32.8534 42.1443 32.6473 41.5166L30.062 33.6412C30.0498 33.6043 30.063 33.5641 30.0948 33.5412L36.8634 28.674C37.403 28.2859 37.6185 27.6295 37.4124 27.0017C37.2062 26.3738 36.6421 25.9682 35.9751 25.9682H27.6087C27.5694 25.9682 27.5348 25.9433 27.5227 25.9064L24.9374 18.031C24.7312 17.4032 24.1669 16.9975 23.5 16.9975ZM26.1713 26.341C26.3743 26.9592 26.9518 27.3745 27.6086 27.3745H35.975C35.9996 27.3745 36.0406 27.3745 36.061 27.4364C36.0812 27.4983 36.048 27.5222 36.0281 27.5364L29.2597 32.4036C28.7283 32.7857 28.5077 33.4577 28.7106 34.0759L31.2959 41.9513C31.3035 41.9745 31.3161 42.0132 31.263 42.0513C31.2096 42.0896 31.1765 42.0656 31.1567 42.0513L24.3881 37.184C24.1225 36.9931 23.8113 36.8976 23.4999 36.8976C23.1887 36.8976 22.8773 36.9932 22.6116 37.1841L15.8431 42.0513C15.8233 42.0657 15.7902 42.0897 15.7368 42.0513C15.6837 42.0131 15.6964 41.9744 15.7039 41.9512L18.2892 34.0759C18.4922 33.4577 18.2715 32.7857 17.7402 32.4036L10.9717 27.5364C10.9518 27.5222 10.9186 27.4983 10.9388 27.4364C10.9592 27.3745 11.0002 27.3745 11.0248 27.3745H19.3912C20.048 27.3745 20.6255 26.9592 20.8285 26.341L23.4138 18.4656C23.4214 18.4425 23.4342 18.4037 23.4998 18.4037C23.5655 18.4037 23.5782 18.4425 23.5858 18.4655L26.1713 26.341Z"/>
<path d="M43.3761 4.46097H41.4737V3.69203C41.4737 2.20769 40.2535 1 38.7537 1C37.254 1 36.0338 2.20769 36.0338 3.69203V4.46097H31.3044V3.69203C31.3045 2.20769 30.0843 1 28.5846 1C27.0849 1 25.8647 2.20769 25.8647 3.69203V4.46097H21.1353V3.69203C21.1353 2.20769 19.9151 1 18.4154 1C16.9157 1 15.6955 2.20769 15.6955 3.69203V4.46097H10.9661V3.69203C10.9662 2.20769 9.74602 1 8.24631 1C6.7465 1 5.52631 2.20769 5.52631 3.69203V4.46097H3.62395C2.17709 4.46097 1 5.626 1 7.05813V16.9425C1 17.3308 1.31798 17.6456 1.7104 17.6456C2.10283 17.6456 2.42081 17.3308 2.42081 16.9425V13.637H44.5792V40.7175C44.5792 41.1058 44.8972 41.4206 45.2896 41.4206C45.682 41.4206 46 41.1058 46 40.7175V7.05813C46 5.62609 44.8229 4.46097 43.3761 4.46097ZM37.4546 3.69203C37.4546 2.983 38.0373 2.40625 38.7537 2.40625C39.4701 2.40625 40.0529 2.98309 40.0529 3.69203V5.15688C40.0529 5.15931 40.0528 5.16175 40.0528 5.16409C40.0528 5.16644 40.0529 5.16897 40.0529 5.17131V6.66484C40.0529 7.37388 39.4701 7.95062 38.7537 7.95062C38.0373 7.95062 37.4546 7.37378 37.4546 6.66484V3.69203ZM27.2855 3.69203C27.2855 2.983 27.8682 2.40625 28.5846 2.40625C29.301 2.40625 29.8837 2.98309 29.8837 3.69203V6.66494C29.8837 7.37397 29.301 7.95072 28.5846 7.95072C27.8682 7.95072 27.2855 7.37387 27.2855 6.66494V3.69203ZM17.1163 3.69203C17.1163 2.983 17.699 2.40625 18.4154 2.40625C19.1318 2.40625 19.7145 2.98309 19.7145 3.69203V6.66494C19.7145 7.37397 19.1318 7.95072 18.4154 7.95072C17.699 7.95072 17.1163 7.37387 17.1163 6.66494V3.69203ZM8.24631 2.40625C8.96268 2.40625 9.5454 2.98309 9.5454 3.69203V6.66494C9.5454 7.37397 8.96268 7.95072 8.24631 7.95072C7.52994 7.95072 6.94712 7.37387 6.94712 6.66494V5.17141C6.94712 5.16897 6.94722 5.16653 6.94722 5.16419C6.94722 5.16184 6.94712 5.15931 6.94712 5.15697V3.69203C6.94712 2.98309 7.52994 2.40625 8.24631 2.40625ZM2.42081 12.2308V7.05813C2.42081 6.4015 2.96052 5.86722 3.62395 5.86722H5.52631V6.66494C5.52631 8.14928 6.7465 9.35697 8.24631 9.35697C9.74602 9.35697 10.9662 8.14928 10.9662 6.66494V5.86722H15.6956V6.66494C15.6956 8.14928 16.9158 9.35697 18.4155 9.35697C19.9152 9.35697 21.1354 8.14928 21.1354 6.66494V5.86722H25.8648V6.66494C25.8648 8.14928 27.085 9.35697 28.5847 9.35697C30.0844 9.35697 31.3046 8.14928 31.3046 6.66494V5.86722H36.034V6.66494C36.034 8.14928 37.2542 9.35697 38.7539 9.35697C40.2537 9.35697 41.4739 8.14928 41.4739 6.66494V5.86722H43.3762C44.0397 5.86722 44.5794 6.40141 44.5794 7.05813V12.2308H2.42081Z"/>
<path d="M45.2896 43.3577C44.8972 43.3577 44.5792 43.6726 44.5792 44.0609V46.4028C44.5792 47.0595 44.0395 47.5938 43.3761 47.5938H3.62395C2.96052 47.5938 2.42081 47.0596 2.42081 46.4028V20.2426C2.42081 19.8542 2.10283 19.5394 1.7104 19.5394C1.31798 19.5394 1 19.8542 1 20.2426V46.4028C1 47.8349 2.17709 49 3.62395 49H43.3761C44.8229 49 46 47.835 46 46.4028V44.0609C46 43.6726 45.682 43.3577 45.2896 43.3577Z"/>
</mask>
<path d="M23.5 16.9975C22.8331 16.9975 22.2688 17.4032 22.0627 18.031L19.4774 25.9064C19.4653 25.9434 19.4307 25.9683 19.3914 25.9683H11.025C10.358 25.9683 9.79385 26.3739 9.58774 27.0017C9.38163 27.6296 9.59712 28.286 10.1367 28.674L16.9054 33.5413C16.9371 33.5641 16.9503 33.6043 16.9381 33.6412L14.3528 41.5165C14.1467 42.1443 14.3622 42.8008 14.9017 43.1888C15.4414 43.5769 16.1389 43.5768 16.6783 43.1888L23.4468 38.3216C23.4788 38.2986 23.5214 38.2987 23.5532 38.3215L30.3218 43.1888C30.5916 43.3828 30.9008 43.4798 31.2101 43.4798C31.5193 43.4798 31.8285 43.3828 32.0984 43.1888C32.6379 42.8008 32.8534 42.1443 32.6473 41.5166L30.062 33.6412C30.0498 33.6043 30.063 33.5641 30.0948 33.5412L36.8634 28.674C37.403 28.2859 37.6185 27.6295 37.4124 27.0017C37.2062 26.3738 36.6421 25.9682 35.9751 25.9682H27.6087C27.5694 25.9682 27.5348 25.9433 27.5227 25.9064L24.9374 18.031C24.7312 17.4032 24.1669 16.9975 23.5 16.9975ZM26.1713 26.341C26.3743 26.9592 26.9518 27.3745 27.6086 27.3745H35.975C35.9996 27.3745 36.0406 27.3745 36.061 27.4364C36.0812 27.4983 36.048 27.5222 36.0281 27.5364L29.2597 32.4036C28.7283 32.7857 28.5077 33.4577 28.7106 34.0759L31.2959 41.9513C31.3035 41.9745 31.3161 42.0132 31.263 42.0513C31.2096 42.0896 31.1765 42.0656 31.1567 42.0513L24.3881 37.184C24.1225 36.9931 23.8113 36.8976 23.4999 36.8976C23.1887 36.8976 22.8773 36.9932 22.6116 37.1841L15.8431 42.0513C15.8233 42.0657 15.7902 42.0897 15.7368 42.0513C15.6837 42.0131 15.6964 41.9744 15.7039 41.9512L18.2892 34.0759C18.4922 33.4577 18.2715 32.7857 17.7402 32.4036L10.9717 27.5364C10.9518 27.5222 10.9186 27.4983 10.9388 27.4364C10.9592 27.3745 11.0002 27.3745 11.0248 27.3745H19.3912C20.048 27.3745 20.6255 26.9592 20.8285 26.341L23.4138 18.4656C23.4214 18.4425 23.4342 18.4037 23.4998 18.4037C23.5655 18.4037 23.5782 18.4425 23.5858 18.4655L26.1713 26.341Z" stroke="#114A91" />
<path d="M43.3761 4.46097H41.4737V3.69203C41.4737 2.20769 40.2535 1 38.7537 1C37.254 1 36.0338 2.20769 36.0338 3.69203V4.46097H31.3044V3.69203C31.3045 2.20769 30.0843 1 28.5846 1C27.0849 1 25.8647 2.20769 25.8647 3.69203V4.46097H21.1353V3.69203C21.1353 2.20769 19.9151 1 18.4154 1C16.9157 1 15.6955 2.20769 15.6955 3.69203V4.46097H10.9661V3.69203C10.9662 2.20769 9.74602 1 8.24631 1C6.7465 1 5.52631 2.20769 5.52631 3.69203V4.46097H3.62395C2.17709 4.46097 1 5.626 1 7.05813V16.9425C1 17.3308 1.31798 17.6456 1.7104 17.6456C2.10283 17.6456 2.42081 17.3308 2.42081 16.9425V13.637H44.5792V40.7175C44.5792 41.1058 44.8972 41.4206 45.2896 41.4206C45.682 41.4206 46 41.1058 46 40.7175V7.05813C46 5.62609 44.8229 4.46097 43.3761 4.46097ZM37.4546 3.69203C37.4546 2.983 38.0373 2.40625 38.7537 2.40625C39.4701 2.40625 40.0529 2.98309 40.0529 3.69203V5.15688C40.0529 5.15931 40.0528 5.16175 40.0528 5.16409C40.0528 5.16644 40.0529 5.16897 40.0529 5.17131V6.66484C40.0529 7.37388 39.4701 7.95062 38.7537 7.95062C38.0373 7.95062 37.4546 7.37378 37.4546 6.66484V3.69203ZM27.2855 3.69203C27.2855 2.983 27.8682 2.40625 28.5846 2.40625C29.301 2.40625 29.8837 2.98309 29.8837 3.69203V6.66494C29.8837 7.37397 29.301 7.95072 28.5846 7.95072C27.8682 7.95072 27.2855 7.37387 27.2855 6.66494V3.69203ZM17.1163 3.69203C17.1163 2.983 17.699 2.40625 18.4154 2.40625C19.1318 2.40625 19.7145 2.98309 19.7145 3.69203V6.66494C19.7145 7.37397 19.1318 7.95072 18.4154 7.95072C17.699 7.95072 17.1163 7.37387 17.1163 6.66494V3.69203ZM8.24631 2.40625C8.96268 2.40625 9.5454 2.98309 9.5454 3.69203V6.66494C9.5454 7.37397 8.96268 7.95072 8.24631 7.95072C7.52994 7.95072 6.94712 7.37387 6.94712 6.66494V5.17141C6.94712 5.16897 6.94722 5.16653 6.94722 5.16419C6.94722 5.16184 6.94712 5.15931 6.94712 5.15697V3.69203C6.94712 2.98309 7.52994 2.40625 8.24631 2.40625ZM2.42081 12.2308V7.05813C2.42081 6.4015 2.96052 5.86722 3.62395 5.86722H5.52631V6.66494C5.52631 8.14928 6.7465 9.35697 8.24631 9.35697C9.74602 9.35697 10.9662 8.14928 10.9662 6.66494V5.86722H15.6956V6.66494C15.6956 8.14928 16.9158 9.35697 18.4155 9.35697C19.9152 9.35697 21.1354 8.14928 21.1354 6.66494V5.86722H25.8648V6.66494C25.8648 8.14928 27.085 9.35697 28.5847 9.35697C30.0844 9.35697 31.3046 8.14928 31.3046 6.66494V5.86722H36.034V6.66494C36.034 8.14928 37.2542 9.35697 38.7539 9.35697C40.2537 9.35697 41.4739 8.14928 41.4739 6.66494V5.86722H43.3762C44.0397 5.86722 44.5794 6.40141 44.5794 7.05813V12.2308H2.42081Z" stroke="#114A91" />
<path d="M45.2896 43.3577C44.8972 43.3577 44.5792 43.6726 44.5792 44.0609V46.4028C44.5792 47.0595 44.0395 47.5938 43.3761 47.5938H3.62395C2.96052 47.5938 2.42081 47.0596 2.42081 46.4028V20.2426C2.42081 19.8542 2.10283 19.5394 1.7104 19.5394C1.31798 19.5394 1 19.8542 1 20.2426V46.4028C1 47.8349 2.17709 49 3.62395 49H43.3761C44.8229 49 46 47.835 46 46.4028V44.0609C46 43.6726 45.682 43.3577 45.2896 43.3577Z" stroke="#114A91" />
<path d="M23.5 16.9975C22.8331 16.9975 22.2688 17.4032 22.0627 18.031L19.4774 25.9064C19.4653 25.9434 19.4307 25.9683 19.3914 25.9683H11.025C10.358 25.9683 9.79385 26.3739 9.58774 27.0017C9.38163 27.6296 9.59712 28.286 10.1367 28.674L16.9054 33.5413C16.9371 33.5641 16.9503 33.6043 16.9381 33.6412L14.3528 41.5165C14.1467 42.1443 14.3622 42.8008 14.9017 43.1888C15.4414 43.5769 16.1389 43.5768 16.6783 43.1888L23.4468 38.3216C23.4788 38.2986 23.5214 38.2987 23.5532 38.3215L30.3218 43.1888C30.5916 43.3828 30.9008 43.4798 31.2101 43.4798C31.5193 43.4798 31.8285 43.3828 32.0984 43.1888C32.6379 42.8008 32.8534 42.1443 32.6473 41.5166L30.062 33.6412C30.0498 33.6043 30.063 33.5641 30.0948 33.5412L36.8634 28.674C37.403 28.2859 37.6185 27.6295 37.4124 27.0017C37.2062 26.3738 36.6421 25.9682 35.9751 25.9682H27.6087C27.5694 25.9682 27.5348 25.9433 27.5227 25.9064L24.9374 18.031C24.7312 17.4032 24.1669 16.9975 23.5 16.9975ZM26.1713 26.341C26.3743 26.9592 26.9518 27.3745 27.6086 27.3745H35.975C35.9996 27.3745 36.0406 27.3745 36.061 27.4364C36.0812 27.4983 36.048 27.5222 36.0281 27.5364L29.2597 32.4036C28.7283 32.7857 28.5077 33.4577 28.7106 34.0759L31.2959 41.9513C31.3035 41.9745 31.3161 42.0132 31.263 42.0513C31.2096 42.0896 31.1765 42.0656 31.1567 42.0513L24.3881 37.184C24.1225 36.9931 23.8113 36.8976 23.4999 36.8976C23.1887 36.8976 22.8773 36.9932 22.6116 37.1841L15.8431 42.0513C15.8233 42.0657 15.7902 42.0897 15.7368 42.0513C15.6837 42.0131 15.6964 41.9744 15.7039 41.9512L18.2892 34.0759C18.4922 33.4577 18.2715 32.7857 17.7402 32.4036L10.9717 27.5364C10.9518 27.5222 10.9186 27.4983 10.9388 27.4364C10.9592 27.3745 11.0002 27.3745 11.0248 27.3745H19.3912C20.048 27.3745 20.6255 26.9592 20.8285 26.341L23.4138 18.4656C23.4214 18.4425 23.4342 18.4037 23.4998 18.4037C23.5655 18.4037 23.5782 18.4425 23.5858 18.4655L26.1713 26.341Z" stroke="#114A91" stroke-width="0.6" mask="url(#path-1-outside-1)"/>
<path d="M43.3761 4.46097H41.4737V3.69203C41.4737 2.20769 40.2535 1 38.7537 1C37.254 1 36.0338 2.20769 36.0338 3.69203V4.46097H31.3044V3.69203C31.3045 2.20769 30.0843 1 28.5846 1C27.0849 1 25.8647 2.20769 25.8647 3.69203V4.46097H21.1353V3.69203C21.1353 2.20769 19.9151 1 18.4154 1C16.9157 1 15.6955 2.20769 15.6955 3.69203V4.46097H10.9661V3.69203C10.9662 2.20769 9.74602 1 8.24631 1C6.7465 1 5.52631 2.20769 5.52631 3.69203V4.46097H3.62395C2.17709 4.46097 1 5.626 1 7.05813V16.9425C1 17.3308 1.31798 17.6456 1.7104 17.6456C2.10283 17.6456 2.42081 17.3308 2.42081 16.9425V13.637H44.5792V40.7175C44.5792 41.1058 44.8972 41.4206 45.2896 41.4206C45.682 41.4206 46 41.1058 46 40.7175V7.05813C46 5.62609 44.8229 4.46097 43.3761 4.46097ZM37.4546 3.69203C37.4546 2.983 38.0373 2.40625 38.7537 2.40625C39.4701 2.40625 40.0529 2.98309 40.0529 3.69203V5.15688C40.0529 5.15931 40.0528 5.16175 40.0528 5.16409C40.0528 5.16644 40.0529 5.16897 40.0529 5.17131V6.66484C40.0529 7.37388 39.4701 7.95062 38.7537 7.95062C38.0373 7.95062 37.4546 7.37378 37.4546 6.66484V3.69203ZM27.2855 3.69203C27.2855 2.983 27.8682 2.40625 28.5846 2.40625C29.301 2.40625 29.8837 2.98309 29.8837 3.69203V6.66494C29.8837 7.37397 29.301 7.95072 28.5846 7.95072C27.8682 7.95072 27.2855 7.37387 27.2855 6.66494V3.69203ZM17.1163 3.69203C17.1163 2.983 17.699 2.40625 18.4154 2.40625C19.1318 2.40625 19.7145 2.98309 19.7145 3.69203V6.66494C19.7145 7.37397 19.1318 7.95072 18.4154 7.95072C17.699 7.95072 17.1163 7.37387 17.1163 6.66494V3.69203ZM8.24631 2.40625C8.96268 2.40625 9.5454 2.98309 9.5454 3.69203V6.66494C9.5454 7.37397 8.96268 7.95072 8.24631 7.95072C7.52994 7.95072 6.94712 7.37387 6.94712 6.66494V5.17141C6.94712 5.16897 6.94722 5.16653 6.94722 5.16419C6.94722 5.16184 6.94712 5.15931 6.94712 5.15697V3.69203C6.94712 2.98309 7.52994 2.40625 8.24631 2.40625ZM2.42081 12.2308V7.05813C2.42081 6.4015 2.96052 5.86722 3.62395 5.86722H5.52631V6.66494C5.52631 8.14928 6.7465 9.35697 8.24631 9.35697C9.74602 9.35697 10.9662 8.14928 10.9662 6.66494V5.86722H15.6956V6.66494C15.6956 8.14928 16.9158 9.35697 18.4155 9.35697C19.9152 9.35697 21.1354 8.14928 21.1354 6.66494V5.86722H25.8648V6.66494C25.8648 8.14928 27.085 9.35697 28.5847 9.35697C30.0844 9.35697 31.3046 8.14928 31.3046 6.66494V5.86722H36.034V6.66494C36.034 8.14928 37.2542 9.35697 38.7539 9.35697C40.2537 9.35697 41.4739 8.14928 41.4739 6.66494V5.86722H43.3762C44.0397 5.86722 44.5794 6.40141 44.5794 7.05813V12.2308H2.42081Z" stroke="#114A91" stroke-width="0.6" mask="url(#path-1-outside-1)"/>
<path d="M45.2896 43.3577C44.8972 43.3577 44.5792 43.6726 44.5792 44.0609V46.4028C44.5792 47.0595 44.0395 47.5938 43.3761 47.5938H3.62395C2.96052 47.5938 2.42081 47.0596 2.42081 46.4028V20.2426C2.42081 19.8542 2.10283 19.5394 1.7104 19.5394C1.31798 19.5394 1 19.8542 1 20.2426V46.4028C1 47.8349 2.17709 49 3.62395 49H43.3761C44.8229 49 46 47.835 46 46.4028V44.0609C46 43.6726 45.682 43.3577 45.2896 43.3577Z" stroke="#114A91" stroke-width="0.6" mask="url(#path-1-outside-1)"/>
</svg>
