<svg width="43" height="48" viewBox="0 0 43 48" fill="none" stroke="#000" xmlns="http://www.w3.org/2000/svg">
<path stroke="#000" d="M31.7826 37.125C31.2666 37.125 30.8478 37.545 30.8478 38.0625C30.8478 38.58 31.2666 39 31.7826 39C32.2986 39 32.7174 38.58 32.7174 38.0625C32.7174 37.545 32.2986 37.125 31.7826 37.125Z" fill="none"/>
<path stroke="#000" d="M34.0842 34.0934L29.6412 32.6084L28.0462 29.409C29.4831 27.9422 30.4808 26.0014 30.8173 23.977L31.0162 22.7812H32.7174C34.2637 22.7812 35.5217 21.5196 35.5217 19.9688V14.0625C35.5217 6.30844 29.2316 0 21.5 0C13.7486 0 7.47826 6.29034 7.47826 14.0625V19.9688C7.47826 21.1909 8.25983 22.233 9.34783 22.62V23.7188C9.34783 25.2696 10.6059 26.5312 12.1522 26.5312H12.9731C13.3783 27.4141 13.9028 28.2318 14.5411 28.9663C14.6735 29.1189 14.8115 29.2669 14.953 29.4108L13.3588 32.6084L8.91568 34.0935C3.7496 35.8211 0 41.2754 0 47.0625C0 47.5803 0.418502 48 0.934783 48H42.0652C42.5814 48 43 47.5803 43 47.0625C43 41.2754 39.2505 35.8211 34.0842 34.0934ZM33.6522 19.9688C33.6522 20.4857 33.2328 20.9062 32.7174 20.9062H31.2907C31.5283 19.0603 31.6867 17.096 31.7504 15.1613C31.7522 15.1067 31.7537 15.0536 31.7554 15H33.6522V19.9688ZM10.2826 20.9062C9.76717 20.9062 9.34783 20.4857 9.34783 19.9688V15H11.2452C11.2483 15.0978 11.2516 15.196 11.2552 15.2949C11.2553 15.2983 11.2555 15.3016 11.2556 15.305C11.2556 15.3053 11.2556 15.3055 11.2556 15.3058C11.3211 17.1876 11.4774 19.1009 11.7096 20.9062H10.2826V20.9062ZM12.1522 24.6562C11.6367 24.6562 11.2174 24.2357 11.2174 23.7188V22.7812H11.9837L12.1826 23.9774C12.2206 24.2048 12.2672 24.4312 12.3212 24.6562H12.1522ZM11.219 13.125H9.38335C9.85682 6.84178 15.0852 1.875 21.5 1.875C27.8862 1.875 33.1377 6.84113 33.6166 13.125H31.7811C31.7138 7.94747 27.5098 3.75 22.3367 3.75H20.6635C15.4905 3.75 11.2862 7.94747 11.219 13.125ZM20.6634 5.625H22.3366C26.5253 5.625 29.9155 9.06103 29.913 13.2572C29.913 13.5522 29.9107 13.8091 29.9058 14.0428C29.9058 14.0458 29.9057 14.0489 29.9057 14.052L28.7364 13.8845C25.56 13.4296 22.5609 11.9257 20.2914 9.64959C20.1161 9.47381 19.8783 9.375 19.6304 9.375C17.12 9.375 14.7168 10.5221 13.1283 12.4601C13.5198 8.64272 16.7376 5.625 20.6634 5.625ZM14.2592 24.6562C13.7912 23.095 13.2558 18.5013 13.1374 15.5575L14.3956 13.8751C15.551 12.3305 17.3487 11.3707 19.261 11.2606C21.7772 13.6621 25.0323 15.248 28.4721 15.7405L29.8483 15.9378C29.7563 17.8958 29.5683 19.8606 29.299 21.6676C29.2989 21.6682 29.2988 21.6688 29.2987 21.6695C29.2131 22.2504 29.1456 22.6243 28.9732 23.6686C28.4782 26.6466 26.2625 29.3395 23.3377 30.0729C22.134 30.3743 20.8658 30.3743 19.6628 30.0729C17.8365 29.6151 16.1619 28.3477 15.0812 26.5312H16.9869C17.3727 27.6224 18.4118 28.4062 19.6304 28.4062H21.5C23.0494 28.4062 24.3043 27.1478 24.3043 25.5938C24.3043 24.0429 23.0463 22.7812 21.5 22.7812H19.6304C18.3847 22.7812 17.361 23.5882 16.9853 24.6562H14.2592ZM19.5518 31.9702C20.193 32.1057 20.8467 32.175 21.5 32.175C22.0114 32.175 22.5229 32.1321 23.0287 32.0488L21.3769 33.8007L19.5518 31.9702ZM20.0917 35.1637L17.1268 38.3082C16.3106 36.7413 15.6092 35.1105 15.0339 33.441L16.1473 31.2077L20.0917 35.1637ZM26.6942 30.8901L27.9659 33.4409C27.3897 35.1132 26.6881 36.7446 25.8727 38.3096L22.6993 35.127L26.6942 30.8901ZM18.6957 25.5938C18.6957 25.0762 19.1142 24.6562 19.6304 24.6562H21.5C22.0154 24.6562 22.4348 25.0768 22.4348 25.5938C22.4348 26.1114 22.0161 26.5312 21.5 26.5312H19.6304C19.115 26.5312 18.6957 26.1107 18.6957 25.5938ZM1.90696 46.125C2.27741 41.4807 5.3593 37.2593 9.50693 35.8722L13.4418 34.5571C14.1627 36.5563 15.0558 38.4995 16.1025 40.3452C16.1042 40.3484 16.1059 40.3516 16.1077 40.3547L16.1078 40.3549C16.8725 41.7038 17.7333 43.0221 18.6665 44.2735L19.8165 46.125H1.90696ZM21.5 45.2893L20.2322 43.2481C20.218 43.2252 20.2029 43.203 20.1868 43.1814C19.4298 42.1688 18.7237 41.1097 18.0806 40.0256L21.4143 36.4899L24.927 40.0129C24.2796 41.1048 23.571 42.1683 22.8134 43.1813C22.7676 43.2425 22.8325 43.146 21.5 45.2893ZM23.1835 46.125L24.3334 44.2736C25.2707 43.0174 26.1376 41.6886 26.9101 40.3237C26.9147 40.3155 26.9191 40.3071 26.9238 40.2988C26.9244 40.2978 26.9249 40.2968 26.9255 40.2958C27.9589 38.4677 28.8426 36.5414 29.5582 34.5571L33.493 35.8722C37.6407 37.2593 40.7226 41.4807 41.093 46.125H23.1835Z" fill="none"/>
<path stroke="#000" d="M38.2836 42.331C37.6589 41.0769 36.7439 39.9628 35.6374 39.1091C35.2281 38.7933 34.6413 38.8701 34.3265 39.2805C34.0117 39.6909 34.0882 40.2795 34.4974 40.5952C35.3811 41.2771 36.112 42.1671 36.611 43.169C36.8422 43.6329 37.404 43.8197 37.8651 43.5887C38.3268 43.3573 38.5143 42.7943 38.2836 42.331Z" fill="none"/>
</svg>
