<svg width="52" height="48" viewBox="0 0 52 48" fill="none" xmlns="http://www.w3.org/2000/svg">
<path d="M51.6995 34.3063L49.2205 31.8076C48.8221 31.406 48.179 31.4088 47.7839 31.8136C47.3887 32.2184 47.3915 32.872 47.7898 33.2735L50.2687 35.7721C50.4668 35.9718 50.7255 36.0715 50.984 36.0715C51.2454 36.0715 51.5067 35.9697 51.7052 35.7662C52.1005 35.3614 52.0979 34.7078 51.6995 34.3063Z" fill="#114A91"/>
<path d="M46.6946 29.2511C46.2979 28.8479 45.6549 28.8479 45.258 29.2511L45.2562 29.2528C44.8595 29.6559 44.8604 30.3087 45.2571 30.7119C45.4552 30.9132 45.7151 31.0138 45.9749 31.0138C46.2353 31.0138 46.4959 30.9128 46.6945 30.711C47.0912 30.3079 47.0912 29.6543 46.6946 29.2511Z" fill="#114A91"/>
<path d="M38.0344 34.0109L47.8888 23.997C49.3813 22.4802 49.3813 20.0123 47.8887 18.4956C47.3624 17.9607 46.7196 17.6154 46.0426 17.4578C46.2748 16.9506 46.3977 16.394 46.3977 15.818C46.3977 14.7789 45.9995 13.8021 45.2765 13.0675C44.7095 12.4911 43.9956 12.119 43.2208 11.9849C43.657 10.6343 43.3487 9.08755 42.2938 8.01564C41.7137 7.42632 40.9923 7.06716 40.2395 6.93588C40.3656 6.54689 40.4321 6.13612 40.4321 5.71462C40.4321 4.67552 40.0339 3.69866 39.311 2.96403C38.588 2.22939 37.6267 1.82471 36.6042 1.82471C35.9549 1.82471 35.3306 1.9884 34.776 2.29576L34.678 2.18873C33.4042 0.797693 31.6012 0 29.7315 0H21.7548C21.1939 0 20.739 0.462268 20.739 1.03228V2.38596C20.739 2.9277 20.8292 3.45509 21.0016 3.951C20.5422 3.75707 20.045 3.65521 19.5325 3.65521C18.51 3.65521 17.5487 4.05989 16.8257 4.79452C15.7702 5.86706 15.4622 7.41497 15.8994 8.76596C15.1459 8.89693 14.4235 9.2563 13.843 9.84613C13.1201 10.5809 12.7219 11.5577 12.7219 12.5967C12.7219 13.0174 12.7882 13.4275 12.9138 13.8157C12.1399 13.9502 11.4267 14.3222 10.8602 14.8979C9.69458 16.0825 9.43936 17.8473 10.0945 19.2859C9.40076 19.447 8.76356 19.8021 8.24783 20.3261C6.75537 21.8427 6.75537 24.3106 8.24783 25.8273L10.2744 27.8867L0.297527 38.025C-0.0991756 38.4281 -0.0991756 39.0817 0.297527 39.4849C0.495878 39.6864 0.755878 39.7873 1.01578 39.7873C1.27567 39.7873 1.53567 39.6865 1.73402 39.4849L11.8072 29.2486C12.3775 29.5793 13.0246 29.7562 13.6991 29.7562C14.7215 29.7562 15.6828 29.3515 16.4058 28.6167C17.1913 27.8186 17.5628 26.7569 17.5215 25.7092C17.573 25.7113 17.6245 25.7129 17.676 25.7129C18.656 25.7128 19.6366 25.3336 20.3827 24.5754C21.1056 23.8407 21.5038 22.8638 21.5038 21.8248C21.5038 21.7723 21.5021 21.7201 21.5001 21.6679C21.551 21.6699 21.6019 21.6716 21.6528 21.6716C22.633 21.6716 23.6134 21.2924 24.3596 20.5341C25.0825 19.7994 25.4807 18.8225 25.4807 17.7835C25.4807 17.731 25.479 17.6788 25.477 17.6266C25.5278 17.6286 25.5787 17.6303 25.6297 17.6303C26.61 17.6303 27.5903 17.2511 28.3365 16.4928C29.7388 15.0677 29.8232 12.803 28.5904 11.2765L35.3335 4.42411C35.6728 4.07919 36.1237 3.88939 36.6036 3.88939C37.0835 3.88939 37.5345 4.07919 37.8739 4.42411C38.2132 4.76892 38.4 5.22717 38.4 5.71482C38.4 6.20238 38.2132 6.66083 37.8738 7.00554L33.2723 11.6816C32.8756 12.0847 32.8756 12.7383 33.2723 13.1416C33.4706 13.343 33.7306 13.444 33.9905 13.444C34.2504 13.444 34.5104 13.3431 34.7088 13.1416L38.3161 9.47582C39.0163 8.7641 40.156 8.764 40.8564 9.47572C41.5568 10.1875 41.5568 11.3455 40.8564 12.0574L37.2492 15.7231C36.8525 16.1262 36.8525 16.7798 37.2492 17.1831C37.4475 17.3845 37.7075 17.4855 37.9674 17.4855C38.2273 17.4855 38.4873 17.3846 38.6857 17.1831L41.2986 14.5277C41.638 14.1828 42.089 13.993 42.5688 13.993C43.0487 13.993 43.4997 14.1828 43.839 14.5277C44.1783 14.8726 44.3651 15.3308 44.3651 15.8185C44.3651 16.306 44.1783 16.7645 43.8389 17.1092L41.2259 19.7645C40.8292 20.1676 40.8292 20.8212 41.2259 21.2245C41.4243 21.4259 41.6843 21.5269 41.9442 21.5269C42.2041 21.5269 42.4641 21.426 42.6624 21.2245L43.9116 19.955C44.6121 19.2444 45.751 19.2445 46.4511 19.956C47.1516 20.6677 47.1516 21.8258 46.4511 22.5376L36.5967 32.5515C34.1223 35.0662 30.8336 36.5219 27.3365 36.651C27.0794 36.6604 26.8353 36.7687 26.6537 36.9541L17.5504 46.2391C17.1544 46.6429 17.1556 47.2965 17.5531 47.6989C17.7512 47.8996 18.0106 48 18.27 48C18.5305 48 18.7912 47.8988 18.9896 47.6963L25.6853 40.867C27.386 41.9758 29.3862 42.5029 31.42 42.3663L36.6604 47.6917C36.8587 47.8932 37.1188 47.9941 37.3787 47.9941C37.6386 47.9941 37.8985 47.8933 38.0969 47.6917C38.4936 47.2886 38.4936 46.635 38.0969 46.2317L32.5252 40.5691C32.3142 40.3549 32.0211 40.2454 31.7239 40.2701L31.4018 40.297C29.9152 40.4208 28.4458 40.0899 27.1629 39.3593L27.8157 38.6935C31.6767 38.4515 35.2915 36.7983 38.0344 34.0109ZM14.9693 27.157C14.63 27.5019 14.1789 27.6917 13.6992 27.6917C13.2193 27.6917 12.7683 27.5019 12.429 27.157L9.68422 24.3678C8.98385 23.6561 8.98385 22.498 9.68422 21.7861C10.0235 21.4412 10.4747 21.2514 10.9545 21.2514C11.4342 21.2514 11.8854 21.4412 12.2246 21.7861L14.9694 24.5753C15.6697 25.2871 15.6697 26.4451 14.9693 27.157ZM18.9464 23.1155C18.2459 23.8272 17.1061 23.8272 16.4059 23.1155L12.2963 18.9393C11.5959 18.2275 11.5959 17.0694 12.2963 16.3577C12.6356 16.0128 13.0868 15.823 13.5664 15.823C14.0463 15.823 14.4974 16.0128 14.8366 16.3577L18.9461 20.5338C19.2855 20.8787 19.4724 21.3371 19.4724 21.8246C19.4724 22.3122 19.2856 22.7706 18.9464 23.1155ZM22.9233 19.074C22.2228 19.7857 21.0831 19.7858 20.3828 19.074L15.279 13.8875C14.9397 13.5427 14.7529 13.0845 14.7529 12.5968C14.7529 12.1093 14.9397 11.6508 15.2791 11.3061C15.6293 10.9502 16.0894 10.7723 16.5492 10.7723C17.0089 10.7723 17.4685 10.95 17.8186 11.3053L22.9231 16.4925H22.9232C23.2624 16.8373 23.4492 17.2956 23.4492 17.7832C23.4494 18.2709 23.2626 18.7293 22.9233 19.074ZM26.9003 15.0326C26.1999 15.7444 25.0603 15.7444 24.3599 15.0326L19.2561 9.84613C19.2556 9.84561 19.2549 9.8451 19.2543 9.84448L18.2618 8.83583C17.5614 8.124 17.5614 6.96601 18.2618 6.25419C18.612 5.89822 19.072 5.72029 19.532 5.72029C19.992 5.72029 20.4521 5.89822 20.8022 6.25419L26.9001 12.4509C27.2395 12.7957 27.4262 13.2541 27.4262 13.7416C27.4264 14.2294 27.2397 14.6879 26.9003 15.0326ZM27.1674 9.80289L24.3772 6.96756C24.6936 7.03619 25.0189 7.07263 25.35 7.07252C25.3574 7.07252 25.3649 7.07252 25.3725 7.07252L28.1601 7.05921C28.7211 7.05653 29.1738 6.59219 29.1712 6.02207C29.1686 5.4536 28.7143 4.99464 28.1555 4.99464C28.1538 4.99464 28.1522 4.99464 28.1506 4.99464L25.3629 5.00795C25.3586 5.00795 25.3546 5.00795 25.3503 5.00795C24.6635 5.00795 24.0174 4.73703 23.5303 4.24442C23.0402 3.74861 22.7703 3.0887 22.7703 2.38586V2.06447H29.7312C31.0388 2.06447 32.2997 2.6223 33.1906 3.59514L33.232 3.64024L27.1674 9.80289Z" fill="#114A91"/>
</svg>
