<svg width="44" height="44" viewBox="0 0 44 44" fill="none" xmlns="http://www.w3.org/2000/svg">
<path d="M17.36 38.8438C17.134 38.8438 16.9121 38.9357 16.7523 39.0955C16.5926 39.2553 16.5006 39.4772 16.5006 39.7031C16.5006 39.929 16.5926 40.1509 16.7523 40.3107C16.9121 40.4705 17.134 40.5625 17.36 40.5625C17.5859 40.5625 17.8078 40.4705 17.9676 40.3107C18.1274 40.1509 18.2194 39.929 18.2194 39.7031C18.2194 39.4772 18.1274 39.2553 17.9676 39.0955C17.8078 38.9357 17.5859 38.8438 17.36 38.8438Z" fill="#114A91"/>
<path d="M43.084 11.715C41.8627 10.4938 39.8757 10.4938 38.6544 11.715L34.7199 15.6494V2.92188C34.7199 1.31088 33.409 0 31.798 0H2.92198C1.31093 0 0 1.31088 0 2.92188V41.0781C0 42.6891 1.31093 44 2.92198 44H31.798C33.409 44 34.7199 42.6891 34.7199 41.0781V24.5086L43.084 16.1445C44.3053 14.9232 44.3053 12.9363 43.084 11.715ZM33.0011 2.92188V17.3681L31.2823 19.0869V4.29688C31.2823 3.8222 30.8976 3.4375 30.4229 3.4375H24.6793V1.71875H31.798C32.4613 1.71875 33.0011 2.25854 33.0011 2.92188ZM28.3087 26.4899L29.4688 23.8836L30.9151 25.3297L28.3087 26.4899ZM22.9605 1.71875V5.2207C22.9605 5.75378 22.5268 6.1875 21.9937 6.1875H12.7262C12.1931 6.1875 11.7594 5.75378 11.7594 5.2207V1.71875H22.9605ZM31.798 42.2812H2.92198C2.25862 42.2812 1.71881 41.7415 1.71881 41.0781V2.92188C1.71881 2.25854 2.25862 1.71875 2.92198 1.71875H10.0406V3.4375H4.29702C3.82234 3.4375 3.43762 3.8222 3.43762 4.29688V39.7031C3.43762 40.1778 3.82234 40.5625 4.29702 40.5625H13.9224C14.397 40.5625 14.7818 40.1778 14.7818 39.7031C14.7818 39.2285 14.397 38.8438 13.9224 38.8438H5.15643V5.15625H10.0406V5.2207C10.0406 6.70145 11.2454 7.90625 12.7262 7.90625H21.9937C23.4745 7.90625 24.6793 6.70145 24.6793 5.2207V5.15625H29.5635V20.8056L28.5846 21.7841C28.5104 21.8587 28.4503 21.9463 28.4073 22.0423L25.8278 27.836C25.6831 28.1613 25.7536 28.5417 26.005 28.7934C26.1699 28.9579 26.3898 29.0452 26.613 29.0452C26.7312 29.0452 26.85 29.021 26.9625 28.971L29.5635 27.8129V38.8438H20.7976C20.3229 38.8438 19.9382 39.2285 19.9382 39.7031C19.9382 40.1778 20.3229 40.5625 20.7976 40.5625H30.4229C30.8973 40.5625 31.2823 40.1778 31.2823 39.7031V27.0475L32.7564 26.3912C32.847 26.3509 32.9293 26.2949 33.0011 26.226V41.0781C33.0011 41.7415 32.4613 42.2812 31.798 42.2812ZM32.4069 24.3908L30.4078 22.3918L38.1569 14.6429L40.156 16.642L32.4069 24.3908ZM41.8688 14.9293L41.3713 15.4265L39.3725 13.4277L39.8697 12.9306C40.4209 12.3794 41.3176 12.3794 41.8688 12.9306C42.4197 13.4814 42.4197 14.3781 41.8688 14.9293Z" fill="#114A91"/>
<path d="M13.9224 10.3125H8.42216C7.94748 10.3125 7.56276 10.6972 7.56276 11.1719V16.6719C7.56276 17.1465 7.94748 17.5312 8.42216 17.5312H13.9224C14.397 17.5312 14.7818 17.1465 14.7818 16.6719V11.1719C14.7818 10.6972 14.397 10.3125 13.9224 10.3125ZM13.0629 15.8125H9.28157V12.0312H13.0629V15.8125Z" fill="#114A91"/>
<path d="M13.9224 19.7656H8.42216C7.94748 19.7656 7.56276 20.1503 7.56276 20.625V26.125C7.56276 26.5997 7.94748 26.9844 8.42216 26.9844H13.9224C14.397 26.9844 14.7818 26.5997 14.7818 26.125V20.625C14.7818 20.1503 14.397 19.7656 13.9224 19.7656ZM13.0629 25.2656H9.28157V21.4844H13.0629V25.2656Z" fill="#114A91"/>
<path d="M13.9224 29.2188H8.42216C7.94748 29.2188 7.56276 29.6035 7.56276 30.0781V35.5781C7.56276 36.0528 7.94748 36.4375 8.42216 36.4375H13.9224C14.397 36.4375 14.7818 36.0528 14.7818 35.5781V30.0781C14.7818 29.6035 14.397 29.2188 13.9224 29.2188ZM13.0629 34.7188H9.28157V30.9375H13.0629V34.7188Z" fill="#114A91"/>
<path d="M20.0738 16.4695C20.2417 16.6373 20.4615 16.7212 20.6814 16.7212C20.9013 16.7212 21.1212 16.6373 21.2891 16.4695L25.1691 12.5895C25.5045 12.2542 25.5045 11.71 25.1691 11.3743C24.8334 11.0386 24.2893 11.0386 23.9536 11.3743L20.6814 14.6463L19.3772 13.3421C19.0415 13.0064 18.4977 13.0064 18.1616 13.3421C17.8263 13.6778 17.8263 14.222 18.1616 14.5573L20.0738 16.4695Z" fill="#114A91"/>
<path d="M20.0738 25.9226C20.2349 26.0837 20.4535 26.1743 20.6814 26.1743C20.9094 26.1743 21.1279 26.0837 21.2891 25.9226L25.1691 22.043C25.5045 21.7073 25.5045 21.1631 25.1691 20.8274C24.8334 20.4921 24.2893 20.4921 23.9536 20.8274L20.6814 24.0998L19.3772 22.7956C19.0415 22.4599 18.4977 22.4599 18.1616 22.7956C17.8263 23.131 17.8263 23.6751 18.1616 24.0108L20.0738 25.9226Z" fill="#114A91"/>
<path d="M21.6654 34.0437L22.9978 35.3757C23.1657 35.5435 23.3855 35.6275 23.6054 35.6275C23.8253 35.6275 24.0452 35.5435 24.2131 35.3757C24.5488 35.04 24.5488 34.4958 24.2131 34.1605L22.881 32.8281L24.2131 31.4958C24.5488 31.1604 24.5488 30.6162 24.2131 30.2805C23.8773 29.9449 23.3335 29.9449 22.9978 30.2805L21.6654 31.6126L20.3333 30.2805C19.9976 29.9452 19.4538 29.9449 19.1177 30.2805C18.7824 30.6162 18.7824 31.1604 19.1177 31.4958L20.4501 32.8281L19.1177 34.1605C18.7824 34.4958 18.7824 35.04 19.1177 35.3757C19.2856 35.5435 19.5058 35.6275 19.7257 35.6275C19.9456 35.6275 20.1655 35.5435 20.3333 35.3757L21.6654 34.0437Z" fill="#114A91"/>
</svg>
