<svg width="34" height="48" viewBox="0 0 34 48" fill="none" xmlns="http://www.w3.org/2000/svg">
<path d="M33.8166 31.4872L30.0465 26.9104V4C30.0465 1.7944 28.273 0 26.093 0H3.95349C1.77353 0 0 1.7944 0 4V37.6C0 39.8056 1.77353 41.6 3.95349 41.6H21.3488V42.4C21.3488 42.6128 21.4319 42.816 21.5805 42.9656L24.5116 45.9312V47.2C24.5116 47.6424 24.8659 48 25.3023 48H33.2093C33.6458 48 34 47.6424 34 47.2V32C34 31.8128 33.9352 31.6312 33.8166 31.4872ZM1.5814 4C1.5814 2.6768 2.64567 1.6 3.95349 1.6H26.093C27.4008 1.6 28.4651 2.6768 28.4651 4V5.6H1.5814V4ZM21.3488 40H3.95349C2.64567 40 1.5814 38.9232 1.5814 37.6V36H21.3488V40ZM21.3488 28.4V34.4H1.5814V7.2H28.4651V34.8688L26.8837 33.2688V28.4C26.8837 26.856 25.6423 25.6 24.1163 25.6C22.5902 25.6 21.3488 26.856 21.3488 28.4ZM32.4186 46.4H26.093V45.6C26.093 45.3872 26.01 45.184 25.8613 45.0344L22.9302 42.0688V28.4C22.9302 27.7384 23.4624 27.2 24.1163 27.2C24.7702 27.2 25.3023 27.7384 25.3023 28.4V33.6C25.3023 33.8128 25.3853 34.016 25.534 34.1656L28.6968 37.3656C28.9229 37.5944 29.2613 37.664 29.5587 37.5392C29.8536 37.416 30.0465 37.1232 30.0465 36.8V29.4096L32.4186 32.2904V46.4Z" fill="#114A91"/>
<path d="M26.3587 14.4472L15.2889 10.4472C15.1166 10.3848 14.9292 10.3848 14.7568 10.4472L3.68702 14.4472C3.37312 14.56 3.16279 14.8616 3.16279 15.2C3.16279 15.5384 3.37312 15.84 3.68781 15.9528L3.95349 16.0496V24H5.53488V16.6208L7.90698 17.4776V23.2C7.90698 23.5336 8.11177 23.832 8.42014 23.9496L14.7457 26.3496C14.8351 26.3832 14.9292 26.4 15.0233 26.4C15.1173 26.4 15.2114 26.3832 15.3008 26.3496L21.6264 23.9496C21.9347 23.832 22.1395 23.5336 22.1395 23.2V17.4776L26.3587 15.9528C26.6734 15.84 26.8837 15.5384 26.8837 15.2C26.8837 14.8616 26.6734 14.56 26.3587 14.4472ZM20.5581 22.6456L15.0233 24.7456L9.48837 22.6456V18.0496L14.7576 19.9536C14.843 19.984 14.9331 20 15.0233 20C15.1134 20 15.2035 19.984 15.2889 19.9528L20.5581 18.0496V22.6456ZM15.0233 18.3504L6.30423 15.2L15.0233 12.0496L23.7423 15.2L15.0233 18.3504Z" fill="#114A91"/>
<path d="M11.0698 31.2H9.48837V32.8H11.0698V31.2Z" fill="#114A91"/>
<path d="M7.90698 31.2H6.32558V32.8H7.90698V31.2Z" fill="#114A91"/>
<path d="M4.74419 31.2H3.16279V32.8H4.74419V31.2Z" fill="#114A91"/>
</svg>
