<svg width="43" height="43" viewBox="0 0 43 43" fill="none" xmlns="http://www.w3.org/2000/svg">
<path d="M42.9209 10.1912C42.7729 9.64071 42.4119 9.17144 41.9178 8.88695C41.4235 8.60105 40.8357 8.52371 40.2843 8.67174C39.7336 8.82011 39.2644 9.18089 38.9799 9.675L38.6217 10.2986C38.2812 10.103 37.8463 10.2181 37.6473 10.5568L35.8272 13.6597L35.2037 13.3014C35.0386 13.2058 34.842 13.1799 34.6579 13.2296C34.4736 13.2797 34.3168 13.4008 34.222 13.5666C34.0278 13.9092 34.1461 14.3445 34.4872 14.5412L35.1107 14.8995L29.02 25.456L27.5152 29.4768L26.7987 30.8167C26.3792 31.5466 26.424 32.454 26.9134 33.1388L25.3012 35.1167L24.8499 33.9846C24.6463 33.48 24.175 33.1343 23.633 33.0919C23.0907 33.0493 22.5711 33.3173 22.2916 33.7838L22.0337 34.2208L21.7902 31.3542C21.7342 30.676 21.2091 30.1308 20.5338 30.0489C19.8582 29.9674 19.2186 30.3723 19.0028 31.0175L17.2401 36.3064C17.1169 36.6805 17.3185 37.0837 17.6914 37.2096C17.7614 37.2422 17.8366 37.2618 17.9136 37.2667C18.2215 37.2677 18.4958 37.0714 18.5945 36.7796L20.3498 31.4906L20.6007 34.4C20.6524 35.0208 21.0985 35.5369 21.7052 35.6776C22.3119 35.8183 22.9396 35.5509 23.259 35.0166L23.5242 34.5792L23.9685 35.7046C24.1571 36.1787 24.5836 36.5171 25.0885 36.5923C25.5934 36.6676 26.1 36.4685 26.4191 36.0699L28.0887 33.9559C28.2734 34.0042 28.4637 34.0284 28.6548 34.0277C29.4228 34.0336 30.1358 33.6291 30.5249 32.9667L31.2414 31.7699L33.9715 28.4518L40.1265 17.7662L40.75 18.1245C40.9161 18.2197 41.0372 18.3768 41.0865 18.5619C41.1362 18.7457 41.1103 18.9416 41.0152 19.1064L38.149 24.0731C38.0409 24.2361 38.0041 24.4363 38.0475 24.6274C38.0909 24.8181 38.2102 24.9829 38.3782 25.0833C38.5433 25.1792 38.7399 25.2051 38.924 25.1554C39.1083 25.1054 39.2651 24.9843 39.3599 24.8184L42.2261 19.8518C42.5119 19.3573 42.5893 18.7695 42.4409 18.218C42.2926 17.6672 41.9318 17.1979 41.4378 16.9134L40.8143 16.5551L42.6057 13.4518C42.8013 13.1114 42.6862 12.6767 42.3478 12.4773L42.7061 11.8537C42.9997 11.3515 43.0773 10.7517 42.9209 10.1912ZM40.2195 10.3917C40.3144 10.2258 40.4718 10.1044 40.6569 10.055C40.8409 10.0095 41.0355 10.0351 41.2013 10.1268C41.3675 10.2216 41.4885 10.3791 41.5382 10.5638C41.5837 10.7479 41.5582 10.9425 41.4665 11.1083L41.1082 11.7319L39.8613 11.0153L40.2195 10.3917ZM30.4531 30.4013L29.0344 29.5768L30.0518 26.8537L32.3089 28.1579L30.4531 30.4013ZM28.3035 32.4722C28.0009 32.2612 27.9078 31.8553 28.0887 31.5333L28.447 30.9101L29.6936 31.6268L29.3353 32.243C29.2349 32.4173 29.0662 32.5411 28.87 32.5849C28.6737 32.6283 28.4683 32.5877 28.3035 32.4722ZM33.1258 26.9828L30.6466 25.5494L36.379 15.6162L38.8582 17.0495L33.1258 26.9828ZM39.5747 15.8097L37.0955 14.3764L38.5286 11.8967L41.0078 13.3301L39.5747 15.8097Z" fill="#114A91"/>
<path d="M11.3069 32.1139L8.77067 34.6439L7.25151 33.1245C6.97196 32.8466 6.52062 32.8466 6.24107 33.1245C6.10532 33.2592 6.02905 33.4422 6.02905 33.6333C6.02905 33.8244 6.10532 34.0077 6.24107 34.1421L7.76023 35.6615C8.02894 35.9282 8.39211 36.0776 8.77067 36.0772C9.15134 36.0793 9.51765 35.9299 9.78811 35.6615L12.3174 33.1245C12.5609 32.84 12.5444 32.4162 12.2799 32.1517C12.0151 31.8868 11.5914 31.8703 11.3069 32.1139Z" fill="#114A91"/>
<path d="M2.86618 34.0417C2.86618 37.4063 5.5931 40.1333 8.95681 40.1333C12.3205 40.1333 15.0474 37.4063 15.0474 34.0417C15.0474 33.6459 14.7266 33.325 14.3309 33.325C13.9352 33.325 13.6143 33.6459 13.6143 34.0417C13.6143 36.6144 11.5291 38.7 8.95681 38.7C6.38452 38.7 4.29927 36.6144 4.29927 34.0417C4.29927 31.4689 6.38452 29.3833 8.95681 29.3833C9.96515 29.3805 10.9465 29.7077 11.7513 30.3152C12.0679 30.5528 12.5171 30.4884 12.7544 30.1717C12.9919 29.855 12.9279 29.4061 12.6113 29.1685C10.7657 27.7841 8.29624 27.5616 6.23303 28.5932C4.16946 29.6251 2.86618 31.7345 2.86618 34.0417Z" fill="#114A91"/>
<path d="M25.7956 5.73333C26.1913 5.73333 26.5121 5.41279 26.5121 5.01667C26.5121 4.62089 26.1913 4.3 25.7956 4.3H7.16544C6.76973 4.3 6.4489 4.62089 6.4489 5.01667V7.88333C6.4489 8.27946 6.76973 8.6 7.16544 8.6H25.7956C26.1913 8.6 26.5121 8.27946 26.5121 7.88333C26.5121 7.48756 26.1913 7.16667 25.7956 7.16667H7.88199V5.73333H25.7956Z" fill="#114A91"/>
<path d="M9.31508 10.0333C8.91937 10.0333 8.59853 10.3542 8.59853 10.75C8.59853 11.1461 8.91937 11.4667 9.31508 11.4667H23.646C24.0417 11.4667 24.3625 11.1461 24.3625 10.75C24.3625 10.3542 24.0417 10.0333 23.646 10.0333H9.31508Z" fill="#114A91"/>
<path d="M27.9452 15.05H12.1813C11.7855 15.05 11.4647 15.3709 11.4647 15.7667C11.4647 16.1628 11.7855 16.4833 12.1813 16.4833H27.9452C28.3409 16.4833 28.6618 16.1628 28.6618 15.7667C28.6618 15.3709 28.3409 15.05 27.9452 15.05Z" fill="#114A91"/>
<path d="M20.7798 20.0667C20.7798 19.6709 20.459 19.35 20.0632 19.35H5.73236C5.33665 19.35 5.01581 19.6709 5.01581 20.0667C5.01581 20.4628 5.33665 20.7833 5.73236 20.7833H20.0632C20.459 20.7833 20.7798 20.4628 20.7798 20.0667Z" fill="#114A91"/>
<path d="M27.9452 19.35H22.9294C22.5337 19.35 22.2129 19.6709 22.2129 20.0667C22.2129 20.4628 22.5337 20.7833 22.9294 20.7833H27.9452C28.3409 20.7833 28.6618 20.4628 28.6618 20.0667C28.6618 19.6709 28.3409 19.35 27.9452 19.35Z" fill="#114A91"/>
<path d="M12.8978 24.3667C13.2935 24.3667 13.6143 24.0461 13.6143 23.65C13.6143 23.2542 13.2935 22.9333 12.8978 22.9333H5.73236C5.33665 22.9333 5.01581 23.2542 5.01581 23.65C5.01581 24.0461 5.33665 24.3667 5.73236 24.3667H12.8978Z" fill="#114A91"/>
<path d="M15.764 24.3667H20.7798C21.1755 24.3667 21.4963 24.0461 21.4963 23.65C21.4963 23.2542 21.1755 22.9333 20.7798 22.9333H15.764C15.3683 22.9333 15.0474 23.2542 15.0474 23.65C15.0474 24.0461 15.3683 24.3667 15.764 24.3667Z" fill="#114A91"/>
<path d="M32.2445 32.9667C31.8488 32.9667 31.528 33.2876 31.528 33.6833V40.85C31.528 41.2461 31.2071 41.5667 30.8114 41.5667H2.14963C1.75392 41.5667 1.43309 41.2461 1.43309 40.85V2.15C1.43309 1.75422 1.75392 1.43333 2.14963 1.43333H30.8114C31.2071 1.43333 31.528 1.75422 31.528 2.15V15.6092C31.528 16.005 31.8488 16.3259 32.2445 16.3259C32.6402 16.3259 32.961 16.005 32.961 15.6092V2.15C32.961 0.962671 31.9985 0 30.8114 0H2.14963C0.962507 0 0 0.962671 0 2.15V40.85C0 42.0377 0.962507 43 2.14963 43H30.8114C31.9985 43 32.961 42.0377 32.961 40.85V33.6833C32.961 33.2876 32.6402 32.9667 32.2445 32.9667Z" fill="#114A91"/>
</svg>
